<svg id="Слой_1" xmlns="http://www.w3.org/2000/svg" xmlns:xlink="http://www.w3.org/1999/xlink" viewBox="0 0 42.5 42.5">
	<style>
		.st0{clip-path:url(#SVGID_2_);fill:#f0f0ef}.st1,.st2{clip-path:url(#SVGID_4_);fill:#4d5f9f}.st2{clip-path:url(#SVGID_6_)}.st3,.st4,.st5{clip-path:url(#SVGID_8_);fill:#4d5f9f}.st4,.st5{clip-path:url(#SVGID_10_)}.st5{clip-path:url(#SVGID_12_)}.st6,.st7,.st8{clip-path:url(#SVGID_14_);fill:#4d5f9f}.st7,.st8{clip-path:url(#SVGID_16_)}.st8{clip-path:url(#SVGID_18_)}.st10,.st9{clip-path:url(#SVGID_20_);fill:#ac4f49}.st10{clip-path:url(#SVGID_22_)}.st11,.st12,.st13{clip-path:url(#SVGID_24_);fill:#ac4f49}.st12,.st13{clip-path:url(#SVGID_26_)}.st13{clip-path:url(#SVGID_28_)}
	</style>
	<defs>
		<circle id="SVGID_1_" cx="21.3" cy="21.3" r="20"/>
	</defs>
	<clipPath id="SVGID_2_">
		<use xlink:href="#SVGID_1_" overflow="visible"/>
	</clipPath>
	<path class="st0" d="M-3.7-3.7h50v50h-50z"/>
	<defs>
		<path id="SVGID_3_" d="M5.5 9.2c-1.6 2-2.8 4.4-3.4 7h10.4l-7-7z"/>
	</defs>
	<clipPath id="SVGID_4_">
		<use xlink:href="#SVGID_3_" overflow="visible"/>
	</clipPath>
	<path class="st1" d="M-3 4.2h20.4v17H-3z"/>
	<defs>
		<path id="SVGID_5_" d="M40.6 16.1c-.7-2.6-1.9-4.9-3.4-7l-7 7h10.4z"/>
	</defs>
	<clipPath id="SVGID_6_">
		<use xlink:href="#SVGID_5_" overflow="visible"/>
	</clipPath>
	<path class="st2" d="M25.2 4.2h20.4v17H25.2z"/>
	<defs>
		<path id="SVGID_7_" d="M2 26.6c.7 2.6 1.9 4.9 3.4 7l7-7H2z"/>
	</defs>
	<clipPath id="SVGID_8_">
		<use xlink:href="#SVGID_7_" overflow="visible"/>
	</clipPath>
	<path class="st3" d="M-3 21.6h20.4v17H-3z"/>
	<defs>
		<path id="SVGID_9_" d="M33.5 5.5c-2-1.6-4.4-2.8-7-3.4v10.4l7-7z"/>
	</defs>
	<clipPath id="SVGID_10_">
		<use xlink:href="#SVGID_9_" overflow="visible"/>
	</clipPath>
	<path class="st4" d="M21.6-3h17v20.4h-17z"/>
	<g>
		<defs>
			<path id="SVGID_11_" d="M9.2 37.2c2 1.6 4.4 2.8 7 3.4V30.2l-7 7z"/>
		</defs>
		<clipPath id="SVGID_12_">
			<use xlink:href="#SVGID_11_" overflow="visible"/>
		</clipPath>
		<path class="st5" d="M4.2 25.2h17v20.4h-17z"/>
	</g>
	<g>
		<defs>
			<path id="SVGID_13_" d="M16.1 2c-2.6.7-4.9 1.9-7 3.4l7 7V2z"/>
		</defs>
		<clipPath id="SVGID_14_">
			<use xlink:href="#SVGID_13_" overflow="visible"/>
		</clipPath>
		<path class="st6" d="M4.2-3h17v20.4h-17z"/>
	</g>
	<g>
		<defs>
			<path id="SVGID_15_" d="M26.6 40.6c2.6-.7 4.9-1.9 7-3.4l-7-7v10.4z"/>
		</defs>
		<clipPath id="SVGID_16_">
			<use xlink:href="#SVGID_15_" overflow="visible"/>
		</clipPath>
		<path class="st7" d="M21.6 25.2h17v20.4h-17z"/>
	</g>
	<g>
		<defs>
			<path id="SVGID_17_" d="M30.2 26.6l7 7c1.6-2 2.8-4.4 3.4-7H30.2z"/>
		</defs>
		<clipPath id="SVGID_18_">
			<use xlink:href="#SVGID_17_" overflow="visible"/>
		</clipPath>
		<path class="st8" d="M25.2 21.6h20.4v17H25.2z"/>
	</g>
	<g>
		<defs>
			<path id="SVGID_19_"
						d="M41.2 18.7H23.9V1.5c-.9-.1-1.7-.2-2.6-.2-.9 0-1.8.1-2.6.2v17.2H1.5c-.1.9-.2 1.7-.2 2.6 0 .9.1 1.8.2 2.6h17.2v17.2c.9.1 1.7.2 2.6.2.9 0 1.8-.1 2.6-.2V23.9h17.2c.1-.9.2-1.7.2-2.6 0-.9 0-1.7-.1-2.6z"/>
		</defs>
		<clipPath id="SVGID_20_">
			<use xlink:href="#SVGID_19_" overflow="visible"/>
		</clipPath>
		<path class="st9" d="M-3.7-3.7h50v50h-50z"/>
	</g>
	<g>
		<defs>
			<path id="SVGID_21_" d="M26.6 26.6l8.9 8.9c.4-.4.8-.8 1.2-1.3L29 26.6h-2.4z"/>
		</defs>
		<clipPath id="SVGID_22_">
			<use xlink:href="#SVGID_21_" overflow="visible"/>
		</clipPath>
		<path class="st10" d="M21.6 21.6h20.1v18.9H21.6z"/>
	</g>
	<g>
		<defs>
			<path id="SVGID_23_" d="M16.1 26.6l-8.9 8.9c.4.4.8.8 1.3 1.2l7.6-7.6v-2.5z"/>
		</defs>
		<clipPath id="SVGID_24_">
			<use xlink:href="#SVGID_23_" overflow="visible"/>
		</clipPath>
		<path class="st11" d="M2.2 21.6h18.9v20.1H2.2z"/>
	</g>
	<g>
		<defs>
			<path id="SVGID_25_" d="M16.1 16.1L7.2 7.2c-.4.4-.8.8-1.2 1.3l7.6 7.6h2.5z"/>
		</defs>
		<clipPath id="SVGID_26_">
			<use xlink:href="#SVGID_25_" overflow="visible"/>
		</clipPath>
		<path class="st12" d="M1 2.2h20.1v18.9H1z"/>
	</g>
	<g>
		<defs>
			<path id="SVGID_27_" d="M26.6 16.1l8.9-8.9c-.4-.4-.8-.8-1.3-1.2l-7.6 7.6v2.5z"/>
		</defs>
		<clipPath id="SVGID_28_">
			<use xlink:href="#SVGID_27_" overflow="visible"/>
		</clipPath>
		<path class="st13" d="M21.6 1h18.9v20.1H21.6z"/>
	</g>
</svg>
