<?xml version="1.0" encoding="utf-8"?>
<!-- Generator: Adobe Illustrator 21.1.0, SVG Export Plug-In . SVG Version: 6.00 Build 0)  -->
<svg version="1.1" id="Слой_1" xmlns="http://www.w3.org/2000/svg" xmlns:xlink="http://www.w3.org/1999/xlink" x="0px" y="0px"
	 viewBox="0 0 260.8 513.1" style="enable-background:new 0 0 260.8 513.1;" xml:space="preserve">
<style type="text/css">
	.st0{fill:#3B544E;}
	.st1{fill:none;}
	.st2{fill:#197D71;}
	.st3{fill:#1A5B53;stroke:#FFFFFF;stroke-width:2;}
	.st4{fill:#F79236;}
	.st5{fill:#F1C791;}
	.st6{opacity:0.5;fill:#FBB03B;}
	.st7{fill:#F89941;}
	.st8{fill:#FFFFFF;}
	.st9{fill:#53786F;}
	.st10{fill:#1A1715;}
	.st11{fill:#ED1D25;}
	.st12{opacity:0.5;fill:#E0A15E;}
	.st13{fill:#E6A258;}
	.st14{fill:#177D70;}
	.st15{fill:#FBB03B;}
	.st16{fill:none;stroke:#FFFFFF;stroke-linejoin:round;}
	.st17{fill:none;stroke:#FFFFFF;stroke-width:2;}
</style>
<g>
	<path class="st0" d="M231.5,1.2H29.3C14.4,1.2,2.4,13.2,2.4,28v457c0,14.8,12,26.8,26.9,26.8h202.2c14.8,0,26.9-12,26.9-26.8V28
		C258.4,13.2,246.4,1.2,231.5,1.2z"/>
	<path class="st1" d="M153.5,474.3c0-12.8-10.4-23.1-23.1-23.1c-12.8,0-23.1,10.3-23.1,23.1c0,12.8,10.4,23.1,23.1,23.1
		C143.2,497.4,153.5,487,153.5,474.3 M156.4,25.3c0,1.8-1.2,3.2-2.6,3.2h-46.9c-1.4,0-2.6-1.4-2.6-3.2c0-1.8,1.2-3.2,2.6-3.2h46.9
		C155.3,22.1,156.4,23.5,156.4,25.3 M242.3,436.7H18.5V49.4h223.8V436.7z M258.4,485c0,14.8-12,26.8-26.9,26.8H29.3
		c-14.8,0-26.9-12-26.9-26.8V28c0-14.8,12-26.8,26.9-26.8h202.2c14.8,0,26.9,12,26.9,26.8V485z"/>
	<rect x="18.2" y="49.3" class="st2" width="224.2" height="387.4"/>
	<g>
		<circle class="st3" cx="131.9" cy="161.2" r="85.6"/>
		<g>
			<path class="st4" d="M171.8,164.4c0-14.4-17.3-26-38.7-26c-21.4,0-38.7,11.6-38.7,26c0,7.6,4.9,14.5,12.7,19.3
				c5.8-7.2,14.7-11.9,24.7-11.9c10.4,0,19.7,5.1,25.5,12.9C166.2,179.9,171.8,172.6,171.8,164.4z"/>
		</g>
		<path class="st5" d="M162.3,201.7c-4-0.6-7.6-2.6-11.4-8.6c-6.2-9.7-3.7-25.4-3.7-25.4l0,1c0-1.9,0-3.1,0-3.1l-15.3,6.3l-15.3-6.3
			c0,0,0,1.2,0,3.1c0,0,2.5,14.7-3.7,24.4c-3.8,5.9-6.1,8.1-10.1,8.6c-8,4-13.3,8.1-15.3,14.4c12.5,10.5,26.8,15.6,44.4,15.6
			c17.6,0,32-5.1,44.4-15.6C174.4,209.9,170.4,205.7,162.3,201.7z"/>
		<path class="st5" d="M108.2,156.9c0,0,10.9,20.7,24,21.2c6.7,0.3,13.9-6.7,23.9-23.7c8-13.5-6.4-43.5-15.2-48.7
			c-8.8-5.1-8.7-13.2-8.7-13.2h-0.6c0,0-22.4,19.2-22.7,22.7C108.6,118.6,108.2,156.9,108.2,156.9z"/>
		<path class="st6" d="M146.9,171c0.1-1.1,0.2-2.4,0.3-3.3c-5.7,7.3-10.5,10.5-15,10.3c-5.9-0.2-11.4-4.6-15.6-9.3
			c0.1,0.8,0.3,2.2,0.4,3.2c4.2,4.8,9.3,8.7,15.3,8.9C136.8,181.1,141.1,178.4,146.9,171z"/>
		<path class="st7" d="M127.7,133.6l-1-2.2c0,0-7.1-3.9-13.5-1.8c-6.4,2.1-4.3,2.1-4.3,2.1S118.2,127.6,127.7,133.6z"/>
		<g>
			<path class="st8" d="M126,138.4c0,0-0.3,0.3-0.2,0.7c0.1,0.3-3.8,0.4-3.8,0.4l-3.9-0.4c0,0-2.5-0.4-3.7-0.8
				c-1.1-0.4,4.6-2.3,4.6-2.3S123.3,135.8,126,138.4z"/>
		</g>
		<path class="st9" d="M122,139.5c0.4-0.4,0.6-0.9,0.7-1.5c0.1-0.7-0.1-1.3-0.5-1.8c-1.2-0.3-3-0.1-4,0c-0.3,0.4-0.5,0.8-0.5,1.3
			c-0.1,0.6,0.1,1.2,0.4,1.6C118.7,139.4,119.9,139.6,122,139.5z"/>
		
			<ellipse transform="matrix(9.547104e-02 -0.9954 0.9954 9.547104e-02 -28.3483 244.1523)" class="st10" cx="120.2" cy="137.7" rx="1.2" ry="1.2"/>
		<path class="st8" d="M121.5,160l21.4,0.2c0,0-4.9,5.6-10.4,5.6C127.1,165.8,121.5,160,121.5,160z"/>
		<path class="st11" d="M120.2,159.6c0,0,1.7,1.2,5.6,1.5c4.8,0.3,4.7,0.8,6.1,0.8c1.4,0,1.5-0.4,2.5-0.4c1-0.1,4.5-0.1,7-0.9
			c2.6-0.8,2.3-0.8,2.3-0.8c-1.7,0.1-4.6-0.4-7.4-0.5c-2.8-0.1-3.9,0.4-4.9,0.3c-0.9-0.1-2-0.4-3.4-0.4
			C126.7,159.2,122.8,160.1,120.2,159.6z"/>
		<path class="st12" d="M123.7,220c6.7,4.9,6.7,13,6.7,13l1.5,0C131.9,224.3,123.7,220,123.7,220z M132.6,233l1.5,0
			c0,0,0-8.1,6.7-13C140.8,220,132.6,224.3,132.6,233z M98.5,224.7l1.6-3.4l-2.8,2.8L98.5,224.7z M163.6,221.3l1.6,3.4l1.2-0.6
			L163.6,221.3z"/>
		<path class="st11" d="M120.2,159.6c0,0,3.7,5.1,6.6,7c2.1,0.9,4.1,1.2,5.4,1.3c1.9,0,3.6-0.4,5.2-1.4c2-1.2,3-3,3.9-4
			c0.8-1,2.5-2.7,2.5-2.7l-1.4,0.2c0,0-2.5,3.1-6.1,3.9c-3.6,0.8-6.7,0.5-8.7-0.3c-2-0.7-4.3-2-5.7-3.5
			C121.9,160.1,121.7,160,120.2,159.6z"/>
		<g>
			<path class="st13" d="M127.7,153.1c0.4,1,1.6,1,2.5,1.3c0.6,0.2,0.9,0.6,1.6,0.7c0.6,0.1,1.3-0.3,1.8-0.5
				c0.4-0.2,0.7-0.4,1.2-0.5c0.4-0.1,0.8-0.1,1.2-0.3c0.5-0.3,0.5-1,0.4-1.5c0,0.2,0,0.3,0,0.5c0-0.1,0-0.1,0,0
				c0,0.1-0.1,0.2-0.1,0.2c-0.1,0.1-0.2,0.2-0.3,0.3c-0.3,0.2-0.7,0.2-1,0.3c-0.8,0.1-1.5,0.6-2.2,0.8c-0.5,0.2-1,0.2-1.5,0
				c-0.2-0.1-0.4-0.3-0.6-0.4c-0.2-0.1-0.4-0.2-0.7-0.3c-0.8-0.2-1.8-0.3-2.2-1.2C127.7,152.7,127.6,152.9,127.7,153.1L127.7,153.1z
				"/>
		</g>
		<path class="st14" d="M162.3,200.4c-4-0.6-7.6-1.4-11.4-7.3c-0.1-0.2-0.3-0.5-0.4-0.7c-4.1,3.5-18.6,22.7-18.6,22.7
			s-14.7-18.9-18.7-22.6c-0.1,0.2-0.2,0.4-0.3,0.6c-3.8,5.9-7.4,6.7-11.4,7.3c-8,4-13.7,9.5-15.7,15.7
			c12.5,10.5,28.6,16.8,46.1,16.8c17.6,0,33.7-6.3,46.1-16.8C176.1,209.9,170.4,204.4,162.3,200.4z"/>
		<path class="st4" d="M100.9,107.5c-7.9,11.2-11.8,34.1-13.6,52.1c0,0,0,0.1,0,0.1c0,0,0,0,0,0c0,0.4-0.1,0.7-0.1,1.1
			c-1.8,19.8,6.5,34.7,9.8,39.6l10.9,15.5c0,0,0.8-45,0.9-46c0.1-1,2.2-63.2,22.7-64.9l0-12.5C131.6,92.5,115,87.7,100.9,107.5z"/>
		<path class="st4" d="M176.6,160.7c0-0.3-0.1-0.7-0.1-1c0,0,0,0,0,0c0-0.1,0-0.1,0-0.2c-1.8-17.9-5.6-40.8-13.6-52
			c-14.1-19.8-30.7-15-30.7-15l0,12.5c20.5,1.7,22.6,63.9,22.7,64.9c0.1,1,0.9,46,0.9,46l10.9-15.5
			C170.1,195.4,178.4,180.6,176.6,160.7z"/>
		<path class="st15" d="M131.6,105l0-1.8l0,0c-3.1,0-15.5,0-22.8,20c-5.8,16.1-7.7,64-8.1,82.4l7.3,10.4c0,0,0.8-45,0.9-46
			C108.9,168.9,111.1,106.7,131.6,105z"/>
		<path class="st7" d="M136.1,133.6l1-2.2c0,0,7.1-3.9,13.5-1.8c6.4,2.1,4.3,2.1,4.3,2.1S145.5,127.6,136.1,133.6z"/>
		<path class="st15" d="M132.2,105l0-1.8l0,0c3.1,0,15.5,0,22.8,20c5.8,16.1,7.7,64,8.1,82.4l-7.3,10.4c0,0-0.8-45-0.9-46
			C154.9,168.9,152.8,106.7,132.2,105z"/>
		<path class="st10" d="M126.6,138.9c0,0-3.1-2.8-6.8-2.6c-3.7,0.3-5.5,1.9-5.5,1.9s-1.7-0.6-3.3-2.1c3.8,1,4.8-1.1,8.9-0.7
			C124,135.9,126.2,138.5,126.6,138.9z"/>
		<g>
			<path class="st8" d="M137.8,138.4c0,0,0.3,0.3,0.2,0.7c-0.1,0.3,3.8,0.4,3.8,0.4l3.9-0.4c0,0,2.5-0.4,3.7-0.8
				c1.1-0.4-4.6-2.3-4.6-2.3S140.5,135.8,137.8,138.4z"/>
		</g>
		<path class="st9" d="M141.8,139.5c-0.4-0.4-0.6-0.9-0.7-1.5c-0.1-0.7,0.1-1.3,0.5-1.8c1.2-0.3,3-0.1,4,0c0.3,0.4,0.5,0.8,0.5,1.3
			c0.1,0.6-0.1,1.2-0.4,1.6C145,139.4,143.8,139.6,141.8,139.5z"/>
		
			<ellipse transform="matrix(0.9954 -9.539031e-02 9.539031e-02 0.9954 -12.4779 14.3275)" class="st10" cx="143.6" cy="137.7" rx="1.2" ry="1.2"/>
		<path class="st10" d="M137.2,138.9c0,0,3.1-2.8,6.8-2.6c3.7,0.3,5.5,1.9,5.5,1.9s1.7-0.6,3.3-2.1c-3.8,1-4.8-1.1-8.9-0.7
			C139.8,135.9,137.6,138.5,137.2,138.9z"/>
		<path class="st8" d="M131.9,193.4c0,0-6,3.6-18.9-0.2l14,39.5l4.9-0.4l5,0.4l14-39.5C137.9,197,131.9,193.4,131.9,193.4z"/>
		<path class="st8" d="M115.4,184.7c0,0,6.8,7.9,16.5,7.9l-4.8,7.9c0,0-9.5-1.8-14.2-7.4C112.9,193.2,115.1,186.1,115.4,184.7z"/>
		<path class="st8" d="M148.5,184.7c0,0-6.8,7.9-16.5,7.9l4.8,7.9c0,0,9.4-1.8,14.2-7.4C150.9,193.1,148.7,186.1,148.5,184.7z"/>
		<polygon class="st14" points="131.9,192.7 136.7,200.6 127.1,200.6 		"/>
		<path class="st14" d="M131.9,192.7l4.9,40.1c0,0-1.7,0.2-4.9,0.2c-3.2,0-4.9-0.2-4.9-0.2L131.9,192.7z"/>
		<polygon class="st14" points="127.1,200.6 130.7,202.5 133.1,202.5 136.7,200.6 132,198.1 		"/>
	</g>
	<path class="st2" d="M204.6,334.7c-0.1,41.5-33.4,75.4-74.3,75.5c-19.6,0-38.1-7.6-52-21.6c-14.3-14.3-22.1-33.3-22.1-53.7
		c0.1-41.5,33.4-75.4,74.3-75.5c9.1,0,18,1.6,26.5,4.9c2.6-3,18.2-22.7-0.3-48.4c-0.2-0.3-0.2-0.7,0.1-1c0.2-0.3,0.6-0.3,0.9-0.1
		c0.4,0.3,43.6,26.3,30.6,72.7C198.8,300.8,204.6,317.6,204.6,334.7"/>
	<path class="st16" d="M204.6,334.7c-0.1,41.5-33.4,75.4-74.3,75.5c-19.6,0-38.1-7.6-52-21.6c-14.3-14.3-22.1-33.3-22.1-53.7
		c0.1-41.5,33.4-75.4,74.3-75.5c9.1,0,18,1.6,26.5,4.9c2.6-3,18.2-22.7-0.3-48.4c-0.2-0.3-0.2-0.7,0.1-1c0.2-0.3,0.6-0.3,0.9-0.1
		c0.4,0.3,43.6,26.3,30.6,72.7C198.8,300.8,204.6,317.6,204.6,334.7z"/>
	<path class="st17" d="M153.5,474.3c0-12.8-10.4-23.1-23.1-23.1c-12.8,0-23.1,10.3-23.1,23.1c0,12.8,10.4,23.1,23.1,23.1
		C143.2,497.4,153.5,487,153.5,474.3z M156.4,25.3c0,1.8-1.2,3.2-2.6,3.2h-46.9c-1.4,0-2.6-1.4-2.6-3.2c0-1.8,1.2-3.2,2.6-3.2h46.9
		C155.3,22.1,156.4,23.5,156.4,25.3z M242.3,436.7H18.5V49.4h223.8V436.7z M258.4,485c0,14.8-12,26.8-26.9,26.8H29.3
		c-14.8,0-26.9-12-26.9-26.8V28c0-14.8,12-26.8,26.9-26.8h202.2c14.8,0,26.9,12,26.9,26.8V485z"/>
	<g>
		<path class="st8" d="M79.2,299.9h7.5v9.5h-1.1v-8.5h-5.4v8.5h-1.1V299.9z"/>
		<path class="st8" d="M89.2,302.3h1v1.4c0.6-0.8,1.4-1.6,2.7-1.6c1.7,0,3.4,1.3,3.4,3.7c0,2.3-1.7,3.7-3.4,3.7
			c-1.3,0-2.1-0.7-2.7-1.5v3.5h-1V302.3z M95.3,305.8c0-1.7-1.1-2.7-2.5-2.7c-1.3,0-2.5,1.1-2.5,2.7c0,1.6,1.2,2.7,2.5,2.7
			C94.2,308.6,95.3,307.6,95.3,305.8z"/>
		<path class="st8" d="M98.3,302.3h1v5.6l4.2-5.6h1v7h-1v-5.6l-4.2,5.6h-1V302.3z"/>
		<path class="st8" d="M106.8,302.3h3.4c1.4,0,2.3,0.7,2.3,1.8c0,0.9-0.6,1.4-1.2,1.6c0.8,0.2,1.5,0.7,1.5,1.7c0,1.2-1,1.9-2.6,1.9
			h-3.5V302.3z M110.1,305.4c0.8,0,1.4-0.4,1.4-1.1c0-0.6-0.5-1-1.4-1h-2.2v2.1H110.1z M110.2,308.5c1,0,1.6-0.4,1.6-1.2
			c0-0.7-0.6-1.1-1.8-1.1h-2.2v2.3H110.2z"/>
		<path class="st8" d="M114.4,305.9c0-2,1.4-3.7,3.4-3.7c2.1,0,3.3,1.7,3.3,3.7c0,0.1,0,0.2,0,0.4h-5.6c0.1,1.5,1.2,2.3,2.5,2.3
			c1,0,1.6-0.4,2.2-1l0.7,0.6c-0.7,0.8-1.6,1.3-2.9,1.3C116,309.5,114.4,308.1,114.4,305.9z M120,305.4c-0.1-1.3-0.9-2.4-2.2-2.4
			c-1.2,0-2.1,1-2.3,2.4H120z"/>
		<path class="st8" d="M124.3,303.3h-2.5v-0.9h6.1v0.9h-2.5v6.1h-1.1V303.3z"/>
		<path class="st8" d="M129.4,307.9h1.3v1.4h-1.3V307.9z M129.5,300.6v-0.8h1.2v0.8l-0.3,6.1h-0.6L129.5,300.6z"/>
		<path class="st8" d="M139.5,305.5c-1.5-0.3-2.6-1.2-2.6-2.8c0-0.7,0.2-1.4,0.7-1.9c0.6-0.6,1.5-1,2.8-1h4.1v9.5h-1.1v-3.6h-2.7
			l-2.8,3.6h-1.3L139.5,305.5z M143.4,304.8v-4h-2.9c-1.6,0-2.5,0.8-2.5,2c0,1.2,1,2,2.5,2H143.4z"/>
		<path class="st8" d="M151.3,299.9h6.9v1h-5.8v3.3h5.2v1h-5.2v3.3h5.9v1h-6.9V299.9z"/>
		<path class="st8" d="M160.4,299.9h4.1c1.2,0,2.1,0.4,2.7,1c0.5,0.5,0.7,1.1,0.7,1.9c0,1.6-1.1,2.5-2.6,2.8l2.9,3.9h-1.3l-2.8-3.7
			h-2.7v3.7h-1.1V299.9z M164.4,304.7c1.4,0,2.4-0.7,2.4-2c0-1.2-0.9-1.9-2.4-1.9h-2.9v3.9H164.4z"/>
		<path class="st8" d="M173.7,299.8h1l4.3,9.6h-1.2l-1.1-2.5h-5.2l-1.1,2.5h-1.1L173.7,299.8z M176.4,305.9l-2.2-4.9l-2.2,4.9H176.4
			z"/>
		<path class="st8" d="M180.2,310.6c0.6-0.2,0.9-0.5,0.9-1v-0.1h-0.5v-1.4h1.3v1.2c0,1.1-0.5,1.6-1.5,1.9L180.2,310.6z"/>
	</g>
	<g>
		<path class="st8" d="M68.6,316.2h4.1c1.1,0,2,0.3,2.5,0.8c0.4,0.4,0.6,0.9,0.6,1.6c0,1.2-0.8,1.9-1.5,2.2c1.1,0.3,2,1,2,2.3
			c0,1.6-1.4,2.6-3.5,2.6h-4.2V316.2z M72.5,320.4c1.3,0,2.2-0.6,2.2-1.7c0-0.9-0.7-1.5-2.1-1.5h-2.9v3.3H72.5z M72.9,324.7
			c1.4,0,2.3-0.6,2.3-1.7c0-1-0.9-1.6-2.5-1.6h-3v3.4H72.9z"/>
		<path class="st8" d="M77.7,323.6c0-1.5,1.2-2.3,3-2.3c0.9,0,1.5,0.1,2.1,0.3v-0.2c0-1.3-0.8-1.9-2.1-1.9c-0.8,0-1.5,0.2-2.1,0.5
			l-0.3-0.9c0.8-0.4,1.5-0.6,2.6-0.6c1,0,1.8,0.3,2.3,0.8c0.5,0.5,0.7,1.2,0.7,2.1v4.3h-1v-1c-0.5,0.6-1.3,1.2-2.5,1.2
			C79,325.8,77.7,325.1,77.7,323.6z M82.9,323.1v-0.7c-0.5-0.1-1.2-0.3-2.1-0.3c-1.3,0-2.1,0.6-2.1,1.4c0,0.9,0.8,1.4,1.8,1.4
			C81.8,325,82.9,324.2,82.9,323.1z"/>
		<path class="st8" d="M86.1,318.7h1v6.1h3.4v-6.1h1v6.1h3.4v-6.1h1.1v7h-10V318.7z"/>
		<path class="st8" d="M101.9,324.5l0.7-0.7c0.6,0.6,1.2,1.1,2.1,1.1c1.3,0,2.4-1,2.6-2.4h-3.2v-0.9h3.2c-0.1-1.3-1.2-2.3-2.5-2.3
			c-1,0-1.6,0.4-2.2,1l-0.6-0.7c0.7-0.7,1.5-1.3,2.9-1.3c2.1,0,3.5,1.7,3.5,3.7c0,2-1.6,3.6-3.6,3.6
			C103.4,325.8,102.6,325.3,101.9,324.5z"/>
		<path class="st8" d="M109,325.7l0.1-0.9c0.1,0,0.4,0.1,0.5,0.1c0.8,0,1.5-0.4,1.5-5.6v-0.6h5v7h-1v-6.1h-2.9v0.2
			c0,5.5-1,6.1-2.3,6.1C109.6,325.8,109.2,325.7,109,325.7z"/>
		<path class="st8" d="M118,322.2c0-2,1.4-3.7,3.4-3.7c2.1,0,3.3,1.7,3.3,3.7c0,0.1,0,0.2,0,0.4h-5.6c0.1,1.5,1.2,2.3,2.5,2.3
			c1,0,1.6-0.4,2.2-1l0.7,0.6c-0.7,0.8-1.6,1.3-2.9,1.3C119.6,325.8,118,324.4,118,322.2z M123.6,321.8c-0.1-1.3-0.9-2.4-2.2-2.4
			c-1.2,0-2.1,1-2.3,2.4H123.6z"/>
		<path class="st8" d="M126.5,318.7h1v4.1l3.8-4.1h1.3l-2.9,3l3,4h-1.2l-2.5-3.2l-1.5,1.5v1.7h-1V318.7z"/>
		<path class="st8" d="M135.9,319.6h-2.5v-0.9h6.1v0.9H137v6.1h-1.1V319.6z"/>
		<path class="st8" d="M141,318.7h1v1.4c0.6-0.8,1.4-1.6,2.7-1.6c1.7,0,3.4,1.3,3.4,3.7c0,2.3-1.7,3.7-3.4,3.7
			c-1.3,0-2.1-0.7-2.7-1.5v3.5h-1V318.7z M147.1,322.2c0-1.7-1.1-2.7-2.5-2.7c-1.3,0-2.5,1.1-2.5,2.7c0,1.6,1.2,2.7,2.5,2.7
			C145.9,324.9,147.1,323.9,147.1,322.2z"/>
		<path class="st8" d="M149.6,322.2c0-2,1.5-3.7,3.7-3.7c2.1,0,3.7,1.7,3.7,3.7c0,2-1.6,3.7-3.7,3.7
			C151.2,325.8,149.6,324.2,149.6,322.2z M155.9,322.2c0-1.5-1.1-2.7-2.6-2.7c-1.5,0-2.6,1.2-2.6,2.7c0,1.5,1.1,2.7,2.6,2.7
			C154.8,324.9,155.9,323.7,155.9,322.2z"/>
		<path class="st8" d="M158.8,318.7h1v3h4.1v-3h1v7h-1v-3.1h-4.1v3.1h-1V318.7z"/>
		<path class="st8" d="M167.3,318.7h1v3h4.1v-3h1v7h-1v-3.1h-4.1v3.1h-1V318.7z"/>
		<path class="st8" d="M175.8,318.7h1v2.6h1.9c1.5,0,2.8,0.6,2.8,2.1c0,1.4-1,2.3-2.7,2.3h-3V318.7z M178.7,324.8
			c1,0,1.7-0.4,1.7-1.3c0-0.8-0.7-1.2-1.7-1.2h-1.9v2.6H178.7z M182.8,318.7h1v7h-1V318.7z"/>
		<path class="st8" d="M186.1,318.7h1v5.6l4.2-5.6h1v7h-1v-5.6l-4.2,5.6h-1V318.7z M187.3,316l0.7-0.2c0.2,0.6,0.5,1,1.2,1
			c0.7,0,1-0.4,1.2-1l0.7,0.2c-0.2,1-0.9,1.7-1.9,1.7C188.2,317.6,187.5,317,187.3,316z"/>
	</g>
	<g>
		<path class="st8" d="M95.1,339.9c0-1.5,1.2-2.3,3-2.3c0.9,0,1.5,0.1,2.1,0.3v-0.2c0-1.3-0.8-1.9-2.1-1.9c-0.8,0-1.5,0.2-2.1,0.5
			l-0.3-0.9c0.8-0.4,1.5-0.6,2.6-0.6c1,0,1.8,0.3,2.3,0.8c0.5,0.5,0.7,1.2,0.7,2.1v4.3h-1v-1c-0.5,0.6-1.3,1.2-2.5,1.2
			C96.4,342.1,95.1,341.4,95.1,339.9z M100.2,339.4v-0.7c-0.5-0.2-1.2-0.3-2.1-0.3c-1.3,0-2.1,0.6-2.1,1.4c0,0.9,0.8,1.4,1.8,1.4
			C99.2,341.3,100.2,340.5,100.2,339.4z"/>
		<path class="st8" d="M103,338.5c0-2,1.5-3.7,3.6-3.7c1.3,0,2.2,0.6,2.8,1.3l-0.7,0.7c-0.6-0.6-1.2-1-2.2-1c-1.4,0-2.5,1.2-2.5,2.7
			c0,1.5,1.1,2.7,2.6,2.7c0.9,0,1.6-0.5,2.1-1.1l0.7,0.6c-0.7,0.8-1.5,1.4-2.9,1.4C104.6,342.2,103,340.5,103,338.5z"/>
		<path class="st8" d="M110.8,338.5c0-2,1.5-3.7,3.6-3.7c1.3,0,2.2,0.6,2.8,1.3l-0.7,0.7c-0.6-0.6-1.2-1-2.2-1
			c-1.4,0-2.5,1.2-2.5,2.7c0,1.5,1.1,2.7,2.6,2.7c0.9,0,1.6-0.5,2.1-1.1l0.7,0.6c-0.7,0.8-1.5,1.4-2.9,1.4
			C112.3,342.2,110.8,340.5,110.8,338.5z"/>
		<path class="st8" d="M119,335h1v5.6l4.2-5.6h1v7h-1v-5.6L120,342h-1V335z"/>
		<path class="st8" d="M127.1,338.5c0-2,1.5-3.7,3.6-3.7c1.3,0,2.2,0.6,2.8,1.3l-0.7,0.7c-0.6-0.6-1.2-1-2.2-1
			c-1.4,0-2.5,1.2-2.5,2.7c0,1.5,1.1,2.7,2.6,2.7c0.9,0,1.6-0.5,2.1-1.1l0.7,0.6c-0.7,0.8-1.5,1.4-2.9,1.4
			C128.7,342.2,127.1,340.5,127.1,338.5z"/>
		<path class="st8" d="M137,335.9h-2.5V335h6.1v0.9h-2.5v6.1H137V335.9z"/>
		<path class="st8" d="M141.4,338.5c0-2,1.4-3.7,3.4-3.7c2.1,0,3.3,1.7,3.3,3.7c0,0.1,0,0.2,0,0.4h-5.6c0.2,1.5,1.2,2.3,2.5,2.3
			c1,0,1.6-0.4,2.2-1l0.7,0.6c-0.7,0.8-1.6,1.3-2.9,1.3C143,342.2,141.4,340.7,141.4,338.5z M147,338.1c-0.1-1.3-0.9-2.4-2.2-2.4
			c-1.2,0-2.1,1-2.3,2.4H147z"/>
		<path class="st8" d="M149.9,335h1v3h4.1v-3h1v7h-1v-3.1H151v3.1h-1V335z"/>
		<path class="st8" d="M160.1,335.9h-2.5V335h6.1v0.9h-2.5v6.1h-1.1V335.9z"/>
		<path class="st8" d="M164.1,340.6h1.3v1.4h-1.3V340.6z"/>
	</g>
	<g>
		<path class="st8" d="M105.7,354.2c-0.7,0.4-2,0.9-3,0.9c-1.8,0-3.1-1-3.1-2.8v-3.6h1.1v3.4c0,1.2,0.7,2,2.1,2c1,0,2.1-0.4,2.9-0.9
			v-4.5h1.1v9.5h-1.1V354.2z"/>
		<path class="st8" d="M108.8,354.8c0-2,1.4-3.7,3.4-3.7c2.1,0,3.3,1.7,3.3,3.7c0,0.1,0,0.2,0,0.4h-5.6c0.1,1.5,1.2,2.3,2.5,2.3
			c1,0,1.6-0.4,2.2-1l0.7,0.6c-0.7,0.8-1.6,1.3-2.9,1.3C110.4,358.5,108.8,357,108.8,354.8z M114.4,354.4c-0.1-1.3-0.9-2.4-2.2-2.4
			c-1.2,0-2.1,1-2.3,2.4H114.4z"/>
		<path class="st8" d="M117.3,351.3h1l2.6,3.7l2.6-3.7h1v7h-1.1v-5.4l-2.6,3.6l-2.6-3.6v5.4h-1V351.3z"/>
		<path class="st8" d="M130.9,351.3h1l2.6,3.7l2.6-3.7h1v7h-1.1v-5.4l-2.6,3.6l-2.6-3.6v5.4h-1V351.3z"/>
		<path class="st8" d="M139.8,354.8c0-2,1.5-3.7,3.7-3.7c2.1,0,3.7,1.7,3.7,3.7c0,2-1.6,3.7-3.7,3.7
			C141.4,358.5,139.8,356.8,139.8,354.8z M146.1,354.8c0-1.5-1.1-2.7-2.6-2.7c-1.5,0-2.6,1.2-2.6,2.7c0,1.5,1.1,2.7,2.6,2.7
			C145,357.5,146.1,356.3,146.1,354.8z"/>
		<path class="st8" d="M149,351.3h4.8v0.9h-3.7v6.1h-1V351.3z"/>
		<path class="st8" d="M154.9,360.2l0.4-0.8c0.3,0.2,0.7,0.3,1.1,0.3c0.6,0,1-0.3,1.4-1.3l-3.2-7h1.2l2.6,5.9l2.3-5.9h1.1l-2.9,7.3
			c-0.6,1.5-1.3,2-2.3,2C155.8,360.5,155.4,360.4,154.9,360.2z"/>
	</g>
	<g>
		<path class="st8" d="M87.2,365.1h4.1c1.1,0,2,0.3,2.5,0.8c0.4,0.4,0.6,0.9,0.6,1.6c0,1.2-0.8,1.9-1.5,2.2c1.1,0.3,2,1,2,2.3
			c0,1.6-1.4,2.6-3.5,2.6h-4.2V365.1z M91.1,369.3c1.3,0,2.2-0.6,2.2-1.7c0-0.9-0.7-1.5-2.1-1.5h-2.9v3.3H91.1z M91.5,373.6
			c1.4,0,2.3-0.6,2.3-1.7c0-1-0.9-1.6-2.5-1.6h-3v3.4H91.5z"/>
		<path class="st8" d="M96.3,372.5c0-1.5,1.2-2.3,3-2.3c0.9,0,1.5,0.1,2.1,0.3v-0.2c0-1.3-0.8-1.9-2.1-1.9c-0.8,0-1.5,0.2-2.1,0.5
			l-0.3-0.9c0.8-0.4,1.5-0.6,2.6-0.6c1,0,1.8,0.3,2.3,0.8c0.5,0.5,0.7,1.2,0.7,2.1v4.3h-1v-1c-0.5,0.6-1.3,1.2-2.5,1.2
			C97.6,374.8,96.3,374,96.3,372.5z M101.5,372v-0.7c-0.5-0.1-1.2-0.3-2.1-0.3c-1.3,0-2.1,0.6-2.1,1.4c0,0.9,0.8,1.4,1.8,1.4
			C100.4,373.9,101.5,373.1,101.5,372z"/>
		<path class="st8" d="M104.7,367.6h1l2.6,3.7l2.6-3.7h1v7h-1.1v-5.4l-2.6,3.6l-2.6-3.6v5.4h-1V367.6z"/>
		<path class="st8" d="M118.4,367.6h6.1v7h-1v-6.1h-4v6.1h-1V367.6z"/>
		<path class="st8" d="M126.4,371.1c0-2,1.5-3.7,3.7-3.7c2.1,0,3.7,1.7,3.7,3.7c0,2-1.6,3.7-3.7,3.7
			C127.9,374.8,126.4,373.1,126.4,371.1z M132.6,371.1c0-1.5-1.1-2.7-2.6-2.7c-1.5,0-2.6,1.2-2.6,2.7c0,1.5,1.1,2.7,2.6,2.7
			C131.6,373.8,132.6,372.6,132.6,371.1z"/>
		<path class="st8" d="M135.6,367.6h1l2.6,3.7l2.6-3.7h1v7h-1.1v-5.4l-2.6,3.6l-2.6-3.6v5.4h-1V367.6z"/>
		<path class="st8" d="M144.5,371.1c0-2,1.6-3.7,3.7-3.7c2.1,0,3.7,1.7,3.7,3.7c0,2-1.6,3.7-3.7,3.7
			C146,374.8,144.5,373.1,144.5,371.1z M150.7,371.1c0-1.5-1.1-2.7-2.6-2.7c-1.5,0-2.6,1.2-2.6,2.7c0,1.5,1.1,2.7,2.6,2.7
			C149.7,373.8,150.7,372.6,150.7,371.1z"/>
		<path class="st8" d="M158.1,371.7c-0.5,0.3-1.5,0.6-2.4,0.6c-1.4,0-2.3-0.7-2.3-2.1v-2.7h1v2.5c0,0.8,0.5,1.3,1.4,1.3
			c0.7,0,1.6-0.3,2.2-0.7v-3.2h1v7h-1V371.7z"/>
		<path class="st8" d="M161.5,367.6h1v2.6h1.9c1.5,0,2.8,0.6,2.8,2.1c0,1.4-1,2.3-2.7,2.3h-3V367.6z M164.5,373.7
			c1,0,1.7-0.4,1.7-1.3c0-0.8-0.7-1.2-1.7-1.2h-1.9v2.6H164.5z"/>
		<path class="st8" d="M170.5,369.7L170.5,369.7c1.8-0.1,2.8-0.8,2.8-2c0-1-0.8-1.8-2-1.8c-1,0-1.8,0.5-2.5,1.3l-0.7-0.7
			c0.8-0.9,1.7-1.6,3.2-1.6c1.8,0,3,1.1,3,2.7c0,1.7-1.3,2.5-2.8,2.8l-0.1,1.5h-0.7L170.5,369.7z M170.4,373.2h1.3v1.4h-1.3V373.2z"
			/>
	</g>
</g>
</svg>
