<?xml version="1.0" encoding="utf-8"?>
<!-- Generator: Adobe Illustrator 21.1.0, SVG Export Plug-In . SVG Version: 6.00 Build 0)  -->
<svg version="1.1" id="Слой_1" xmlns="http://www.w3.org/2000/svg" xmlns:xlink="http://www.w3.org/1999/xlink" x="0px" y="0px"
	 viewBox="0 0 260.8 513.1" style="enable-background:new 0 0 260.8 513.1;" xml:space="preserve">
<style type="text/css">
	.st0{fill:#3B544E;}
	.st1{fill:none;}
	.st2{fill:#197D71;}
	.st3{fill:#1A5B53;stroke:#FFFFFF;stroke-width:2;}
	.st4{fill:#F79236;}
	.st5{fill:#F1C791;}
	.st6{opacity:0.5;fill:#FBB03B;}
	.st7{fill:#F89941;}
	.st8{fill:#FFFFFF;}
	.st9{fill:#53786F;}
	.st10{fill:#1A1715;}
	.st11{fill:#ED1D25;}
	.st12{opacity:0.5;fill:#E0A15E;}
	.st13{fill:#E6A258;}
	.st14{fill:#177D70;}
	.st15{fill:#FBB03B;}
	.st16{fill:none;stroke:#FFFFFF;stroke-linejoin:round;}
	.st17{fill:none;stroke:#FFFFFF;stroke-width:2;}
</style>
<g>
	<path class="st0" d="M231.5,1.2H29.3C14.4,1.2,2.4,13.2,2.4,28v457c0,14.8,12,26.8,26.9,26.8h202.2c14.8,0,26.9-12,26.9-26.8V28
		C258.4,13.2,246.4,1.2,231.5,1.2z"/>
	<path class="st1" d="M153.5,474.3c0-12.8-10.4-23.1-23.1-23.1c-12.8,0-23.1,10.3-23.1,23.1c0,12.8,10.4,23.1,23.1,23.1
		C143.2,497.4,153.5,487,153.5,474.3 M156.4,25.3c0,1.8-1.2,3.2-2.6,3.2h-46.9c-1.4,0-2.6-1.4-2.6-3.2c0-1.8,1.2-3.2,2.6-3.2h46.9
		C155.3,22.1,156.4,23.5,156.4,25.3 M242.3,436.7H18.5V49.4h223.8V436.7z M258.4,485c0,14.8-12,26.8-26.9,26.8H29.3
		c-14.8,0-26.9-12-26.9-26.8V28c0-14.8,12-26.8,26.9-26.8h202.2c14.8,0,26.9,12,26.9,26.8V485z"/>
	<rect x="18.2" y="49.3" class="st2" width="224.2" height="387.4"/>
	<g>
		<circle class="st3" cx="131.9" cy="161.2" r="85.6"/>
		<g>
			<path class="st4" d="M171.8,164.4c0-14.4-17.3-26-38.7-26c-21.4,0-38.7,11.6-38.7,26c0,7.6,4.9,14.5,12.7,19.3
				c5.8-7.2,14.7-11.9,24.7-11.9c10.4,0,19.7,5.1,25.5,12.9C166.2,179.9,171.8,172.6,171.8,164.4z"/>
		</g>
		<path class="st5" d="M162.3,201.7c-4-0.6-7.6-2.6-11.4-8.6c-6.2-9.7-3.7-25.4-3.7-25.4l0,1c0-1.9,0-3.1,0-3.1l-15.3,6.3l-15.3-6.3
			c0,0,0,1.2,0,3.1c0,0,2.5,14.7-3.7,24.4c-3.8,5.9-6.1,8.1-10.1,8.6c-8,4-13.3,8.1-15.3,14.4c12.5,10.5,26.8,15.6,44.4,15.6
			c17.6,0,32-5.1,44.4-15.6C174.4,209.9,170.4,205.7,162.3,201.7z"/>
		<path class="st5" d="M108.2,156.9c0,0,10.9,20.7,24,21.2c6.7,0.3,13.9-6.7,23.9-23.7c8-13.5-6.4-43.5-15.2-48.7
			c-8.8-5.1-8.7-13.2-8.7-13.2h-0.6c0,0-22.4,19.2-22.7,22.7C108.6,118.6,108.2,156.9,108.2,156.9z"/>
		<path class="st6" d="M146.9,171c0.1-1.1,0.2-2.4,0.3-3.3c-5.7,7.3-10.5,10.5-15,10.3c-5.9-0.2-11.4-4.6-15.6-9.3
			c0.1,0.8,0.3,2.2,0.4,3.2c4.2,4.8,9.3,8.7,15.3,8.9C136.8,181.1,141.1,178.4,146.9,171z"/>
		<path class="st7" d="M127.7,133.6l-1-2.2c0,0-7.1-3.9-13.5-1.8c-6.4,2.1-4.3,2.1-4.3,2.1S118.2,127.6,127.7,133.6z"/>
		<g>
			<path class="st8" d="M126,138.4c0,0-0.3,0.3-0.2,0.7c0.1,0.3-3.8,0.4-3.8,0.4l-3.9-0.4c0,0-2.5-0.4-3.7-0.8
				c-1.1-0.4,4.6-2.3,4.6-2.3S123.3,135.8,126,138.4z"/>
		</g>
		<path class="st9" d="M122,139.5c0.4-0.4,0.6-0.9,0.7-1.5c0.1-0.7-0.1-1.3-0.5-1.8c-1.2-0.3-3-0.1-4,0c-0.3,0.4-0.5,0.8-0.5,1.3
			c-0.1,0.6,0.1,1.2,0.4,1.6C118.7,139.4,119.9,139.6,122,139.5z"/>
		
			<ellipse transform="matrix(9.547104e-02 -0.9954 0.9954 9.547104e-02 -28.3483 244.1523)" class="st10" cx="120.2" cy="137.7" rx="1.2" ry="1.2"/>
		<path class="st8" d="M121.5,160l21.4,0.2c0,0-4.9,5.6-10.4,5.6C127.1,165.8,121.5,160,121.5,160z"/>
		<path class="st11" d="M120.2,159.6c0,0,1.7,1.2,5.6,1.5c4.8,0.3,4.7,0.8,6.1,0.8c1.4,0,1.5-0.4,2.5-0.4c1-0.1,4.5-0.1,7-0.9
			c2.6-0.8,2.3-0.8,2.3-0.8c-1.7,0.1-4.6-0.4-7.4-0.5c-2.8-0.1-3.9,0.4-4.9,0.3c-0.9-0.1-2-0.4-3.4-0.4
			C126.7,159.2,122.8,160.1,120.2,159.6z"/>
		<path class="st12" d="M123.7,220c6.7,4.9,6.7,13,6.7,13l1.5,0C131.9,224.3,123.7,220,123.7,220z M132.6,233l1.5,0
			c0,0,0-8.1,6.7-13C140.8,220,132.6,224.3,132.6,233z M98.5,224.7l1.6-3.4l-2.8,2.8L98.5,224.7z M163.6,221.3l1.6,3.4l1.2-0.6
			L163.6,221.3z"/>
		<path class="st11" d="M120.2,159.6c0,0,3.7,5.1,6.6,7c2.1,0.9,4.1,1.2,5.4,1.3c1.9,0,3.6-0.4,5.2-1.4c2-1.2,3-3,3.9-4
			c0.8-1,2.5-2.7,2.5-2.7l-1.4,0.2c0,0-2.5,3.1-6.1,3.9c-3.6,0.8-6.7,0.5-8.7-0.3c-2-0.7-4.3-2-5.7-3.5
			C121.9,160.1,121.7,160,120.2,159.6z"/>
		<g>
			<path class="st13" d="M127.7,153.1c0.4,1,1.6,1,2.5,1.3c0.6,0.2,0.9,0.6,1.6,0.7c0.6,0.1,1.3-0.3,1.8-0.5
				c0.4-0.2,0.7-0.4,1.2-0.5c0.4-0.1,0.8-0.1,1.2-0.3c0.5-0.3,0.5-1,0.4-1.5c0,0.2,0,0.3,0,0.5c0-0.1,0-0.1,0,0
				c0,0.1-0.1,0.2-0.1,0.2c-0.1,0.1-0.2,0.2-0.3,0.3c-0.3,0.2-0.7,0.2-1,0.3c-0.8,0.1-1.5,0.6-2.2,0.8c-0.5,0.2-1,0.2-1.5,0
				c-0.2-0.1-0.4-0.3-0.6-0.4c-0.2-0.1-0.4-0.2-0.7-0.3c-0.8-0.2-1.8-0.3-2.2-1.2C127.7,152.7,127.6,152.9,127.7,153.1L127.7,153.1z
				"/>
		</g>
		<path class="st14" d="M162.3,200.4c-4-0.6-7.6-1.4-11.4-7.3c-0.1-0.2-0.3-0.5-0.4-0.7c-4.1,3.5-18.6,22.7-18.6,22.7
			s-14.7-18.9-18.7-22.6c-0.1,0.2-0.2,0.4-0.3,0.6c-3.8,5.9-7.4,6.7-11.4,7.3c-8,4-13.7,9.5-15.7,15.7
			c12.5,10.5,28.6,16.8,46.1,16.8c17.6,0,33.7-6.3,46.1-16.8C176.1,209.9,170.4,204.4,162.3,200.4z"/>
		<path class="st4" d="M100.9,107.5c-7.9,11.2-11.8,34.1-13.6,52.1c0,0,0,0.1,0,0.1c0,0,0,0,0,0c0,0.4-0.1,0.7-0.1,1.1
			c-1.8,19.8,6.5,34.7,9.8,39.6l10.9,15.5c0,0,0.8-45,0.9-46c0.1-1,2.2-63.2,22.7-64.9l0-12.5C131.6,92.5,115,87.7,100.9,107.5z"/>
		<path class="st4" d="M176.6,160.7c0-0.3-0.1-0.7-0.1-1c0,0,0,0,0,0c0-0.1,0-0.1,0-0.2c-1.8-17.9-5.6-40.8-13.6-52
			c-14.1-19.8-30.7-15-30.7-15l0,12.5c20.5,1.7,22.6,63.9,22.7,64.9c0.1,1,0.9,46,0.9,46l10.9-15.5
			C170.1,195.4,178.4,180.6,176.6,160.7z"/>
		<path class="st15" d="M131.6,105l0-1.8l0,0c-3.1,0-15.5,0-22.8,20c-5.8,16.1-7.7,64-8.1,82.4l7.3,10.4c0,0,0.8-45,0.9-46
			C108.9,168.9,111.1,106.7,131.6,105z"/>
		<path class="st7" d="M136.1,133.6l1-2.2c0,0,7.1-3.9,13.5-1.8c6.4,2.1,4.3,2.1,4.3,2.1S145.5,127.6,136.1,133.6z"/>
		<path class="st15" d="M132.2,105l0-1.8l0,0c3.1,0,15.5,0,22.8,20c5.8,16.1,7.7,64,8.1,82.4l-7.3,10.4c0,0-0.8-45-0.9-46
			C154.9,168.9,152.8,106.7,132.2,105z"/>
		<path class="st10" d="M126.6,138.9c0,0-3.1-2.8-6.8-2.6c-3.7,0.3-5.5,1.9-5.5,1.9s-1.7-0.6-3.3-2.1c3.8,1,4.8-1.1,8.9-0.7
			C124,135.9,126.2,138.5,126.6,138.9z"/>
		<g>
			<path class="st8" d="M137.8,138.4c0,0,0.3,0.3,0.2,0.7c-0.1,0.3,3.8,0.4,3.8,0.4l3.9-0.4c0,0,2.5-0.4,3.7-0.8
				c1.1-0.4-4.6-2.3-4.6-2.3S140.5,135.8,137.8,138.4z"/>
		</g>
		<path class="st9" d="M141.8,139.5c-0.4-0.4-0.6-0.9-0.7-1.5c-0.1-0.7,0.1-1.3,0.5-1.8c1.2-0.3,3-0.1,4,0c0.3,0.4,0.5,0.8,0.5,1.3
			c0.1,0.6-0.1,1.2-0.4,1.6C145,139.4,143.8,139.6,141.8,139.5z"/>
		
			<ellipse transform="matrix(0.9954 -9.539031e-02 9.539031e-02 0.9954 -12.4779 14.3275)" class="st10" cx="143.6" cy="137.7" rx="1.2" ry="1.2"/>
		<path class="st10" d="M137.2,138.9c0,0,3.1-2.8,6.8-2.6c3.7,0.3,5.5,1.9,5.5,1.9s1.7-0.6,3.3-2.1c-3.8,1-4.8-1.1-8.9-0.7
			C139.8,135.9,137.6,138.5,137.2,138.9z"/>
		<path class="st8" d="M131.9,193.4c0,0-6,3.6-18.9-0.2l14,39.5l4.9-0.4l5,0.4l14-39.5C137.9,197,131.9,193.4,131.9,193.4z"/>
		<path class="st8" d="M115.4,184.7c0,0,6.8,7.9,16.5,7.9l-4.8,7.9c0,0-9.5-1.8-14.2-7.4C112.9,193.2,115.1,186.1,115.4,184.7z"/>
		<path class="st8" d="M148.5,184.7c0,0-6.8,7.9-16.5,7.9l4.8,7.9c0,0,9.4-1.8,14.2-7.4C150.9,193.1,148.7,186.1,148.5,184.7z"/>
		<polygon class="st14" points="131.9,192.7 136.7,200.6 127.1,200.6 		"/>
		<path class="st14" d="M131.9,192.7l4.9,40.1c0,0-1.7,0.2-4.9,0.2c-3.2,0-4.9-0.2-4.9-0.2L131.9,192.7z"/>
		<polygon class="st14" points="127.1,200.6 130.7,202.5 133.1,202.5 136.7,200.6 132,198.1 		"/>
	</g>
	<path class="st2" d="M204.6,334.7c-0.1,41.5-33.4,75.4-74.3,75.5c-19.6,0-38.1-7.6-52-21.6c-14.3-14.3-22.1-33.3-22.1-53.7
		c0.1-41.5,33.4-75.4,74.3-75.5c9.1,0,18,1.6,26.5,4.9c2.6-3,18.2-22.7-0.3-48.4c-0.2-0.3-0.2-0.7,0.1-1c0.2-0.3,0.6-0.3,0.9-0.1
		c0.4,0.3,43.6,26.3,30.6,72.7C198.8,300.8,204.6,317.6,204.6,334.7"/>
	<path class="st16" d="M204.6,334.7c-0.1,41.5-33.4,75.4-74.3,75.5c-19.6,0-38.1-7.6-52-21.6c-14.3-14.3-22.1-33.3-22.1-53.7
		c0.1-41.5,33.4-75.4,74.3-75.5c9.1,0,18,1.6,26.5,4.9c2.6-3,18.2-22.7-0.3-48.4c-0.2-0.3-0.2-0.7,0.1-1c0.2-0.3,0.6-0.3,0.9-0.1
		c0.4,0.3,43.6,26.3,30.6,72.7C198.8,300.8,204.6,317.6,204.6,334.7z"/>
	<path class="st17" d="M153.5,474.3c0-12.8-10.4-23.1-23.1-23.1c-12.8,0-23.1,10.3-23.1,23.1c0,12.8,10.4,23.1,23.1,23.1
		C143.2,497.4,153.5,487,153.5,474.3z M156.4,25.3c0,1.8-1.2,3.2-2.6,3.2h-46.9c-1.4,0-2.6-1.4-2.6-3.2c0-1.8,1.2-3.2,2.6-3.2h46.9
		C155.3,22.1,156.4,23.5,156.4,25.3z M242.3,436.7H18.5V49.4h223.8V436.7z M258.4,485c0,14.8-12,26.8-26.9,26.8H29.3
		c-14.8,0-26.9-12-26.9-26.8V28c0-14.8,12-26.8,26.9-26.8h202.2c14.8,0,26.9,12,26.9,26.8V485z"/>
	<g>
		<path class="st8" d="M92.6,291.9h1.1v4.2h5.5v-4.2h1.1v9.5h-1.1v-4.3h-5.5v4.3h-1.1V291.9z"/>
		<path class="st8" d="M102.7,291.7h1.2v1.2h-1.2V291.7z M102.8,294.4h1v7h-1V294.4z"/>
		<path class="st8" d="M106.3,300h1.2v1.4h-1.2V300z M106.3,292.7v-0.8h1.2v0.8l-0.3,6h-0.6L106.3,292.7z"/>
		<path class="st8" d="M114.2,291.9h1.1v9.5h-1.1V291.9z"/>
		<path class="st8" d="M118,291.9h1.3v0.1l-1.1,3.6h-0.6L118,291.9z"/>
		<path class="st8" d="M121.2,294.4h1v1.2c0.5-0.7,1.1-1.3,2.3-1.3c1.1,0,1.9,0.6,2.2,1.4c0.5-0.8,1.2-1.4,2.5-1.4
			c1.6,0,2.6,1.1,2.6,2.8v4.3h-1v-4.1c0-1.4-0.7-2.1-1.8-2.1c-1.1,0-1.9,0.8-1.9,2.2v4h-1v-4.1c0-1.3-0.7-2.1-1.8-2.1
			c-1.1,0-1.9,0.9-1.9,2.2v4h-1V294.4z"/>
		<path class="st8" d="M138.3,291.9h6.8v1h-5.8v3.2h5.2v1h-5.2v3.3h5.8v1h-6.9V291.9z"/>
		<path class="st8" d="M147.4,291.9h4.1c1.2,0,2.1,0.4,2.7,0.9c0.5,0.5,0.7,1.1,0.7,1.9c0,1.6-1.1,2.5-2.6,2.8l2.9,3.9h-1.3
			l-2.7-3.7h-2.7v3.7h-1.1V291.9z M151.4,296.8c1.4,0,2.4-0.7,2.4-2c0-1.2-0.9-1.9-2.4-1.9h-2.9v3.8H151.4z"/>
		<path class="st8" d="M160.7,291.9h1l4.3,9.5h-1.2l-1.1-2.5h-5.2l-1.1,2.5h-1.1L160.7,291.9z M163.3,298l-2.2-4.8L159,298H163.3z"
			/>
		<path class="st8" d="M167.6,300h1.2v1.4h-1.2V300z"/>
		<path class="st8" d="M78.1,308.2h6.8v1h-5.8v3.2h5.2v1h-5.2v3.3H85v1h-6.9V308.2z"/>
		<path class="st8" d="M87.1,307.8h1v9.9h-1V307.8z"/>
		<path class="st8" d="M93.6,316.9c1,0,1.6-0.4,2.2-1l0.6,0.6c-0.7,0.8-1.6,1.3-2.9,1.3c-1.9,0-3.5-1.5-3.5-3.7c0-2,1.4-3.7,3.4-3.7
			c2.1,0,3.3,1.7,3.3,3.7c0,0.1,0,0.2,0,0.4h-5.5C91.3,316.1,92.4,316.9,93.6,316.9z M95.7,313.8c-0.1-1.3-0.9-2.4-2.2-2.4
			c-1.2,0-2.1,1-2.3,2.4H95.7z"/>
		<path class="st8" d="M98.1,314.2c0-2,1.5-3.7,3.6-3.7c1.3,0,2.2,0.6,2.8,1.2l-0.7,0.7c-0.6-0.6-1.2-1-2.2-1
			c-1.4,0-2.5,1.2-2.5,2.7c0,1.5,1.1,2.7,2.6,2.7c0.9,0,1.6-0.5,2.1-1.1l0.7,0.6c-0.7,0.8-1.5,1.4-2.9,1.4
			C99.7,317.8,98.1,316.2,98.1,314.2z"/>
		<path class="st8" d="M106.6,315.8v-4.2h-1v-0.9h1v-2.1h1v2.1h2.2v0.9h-2.2v4.1c0,0.9,0.5,1.2,1.2,1.2c0.4,0,0.6-0.1,1-0.2v0.9
			c-0.4,0.2-0.8,0.3-1.3,0.3C107.5,317.8,106.6,317.2,106.6,315.8z"/>
		<path class="st8" d="M111.8,310.7h1v1.8c0.5-1.2,1.5-2,2.9-1.9v1.1h-0.1c-1.5,0-2.8,1.1-2.8,3.2v2.8h-1V310.7z"/>
		<path class="st8" d="M116.8,314.2c0-2,1.5-3.7,3.7-3.7c2.1,0,3.6,1.7,3.6,3.7c0,2-1.6,3.7-3.7,3.7
			C118.3,317.8,116.8,316.2,116.8,314.2z M123,314.2c0-1.5-1.1-2.7-2.6-2.7c-1.5,0-2.6,1.2-2.6,2.7c0,1.5,1.1,2.7,2.6,2.7
			C122,316.9,123,315.7,123,314.2z"/>
		<path class="st8" d="M126,310.7h1v1.2c0.5-0.8,1.2-1.4,2.4-1.4c1.7,0,2.7,1.1,2.7,2.8v4.3h-1v-4.1c0-1.3-0.7-2.1-1.9-2.1
			c-1.2,0-2.1,0.9-2.1,2.2v4h-1V310.7z"/>
		<path class="st8" d="M134.3,308h1.2v1.2h-1.2V308z M134.4,310.7h1v7h-1V310.7z"/>
		<path class="st8" d="M137.4,314.2c0-2,1.5-3.7,3.6-3.7c1.3,0,2.2,0.6,2.8,1.2l-0.7,0.7c-0.6-0.6-1.2-1-2.2-1
			c-1.4,0-2.5,1.2-2.5,2.7c0,1.5,1.1,2.7,2.6,2.7c0.9,0,1.6-0.5,2.1-1.1l0.7,0.6c-0.7,0.8-1.5,1.4-2.9,1.4
			C139,317.8,137.4,316.2,137.4,314.2z"/>
		<path class="st8" d="M149.7,310.7h1v1.8c0.5-1.2,1.5-2,2.9-1.9v1.1h-0.1c-1.5,0-2.8,1.1-2.8,3.2v2.8h-1V310.7z"/>
		<path class="st8" d="M154.7,314.2c0-2,1.5-3.7,3.7-3.7c2.1,0,3.6,1.7,3.6,3.7c0,2-1.6,3.7-3.7,3.7
			C156.3,317.8,154.7,316.2,154.7,314.2z M160.9,314.2c0-1.5-1.1-2.7-2.6-2.7c-1.5,0-2.6,1.2-2.6,2.7c0,1.5,1.1,2.7,2.6,2.7
			C159.9,316.9,160.9,315.7,160.9,314.2z"/>
		<path class="st8" d="M163.5,314.2c0-2,1.5-3.7,3.7-3.7c2.1,0,3.6,1.7,3.6,3.7c0,2-1.6,3.7-3.7,3.7
			C165,317.8,163.5,316.2,163.5,314.2z M169.7,314.2c0-1.5-1.1-2.7-2.6-2.7c-1.5,0-2.6,1.2-2.6,2.7c0,1.5,1.1,2.7,2.6,2.7
			C168.6,316.9,169.7,315.7,169.7,314.2z"/>
		<path class="st8" d="M172.6,310.7h1v1.2c0.5-0.7,1.1-1.3,2.3-1.3c1.1,0,1.9,0.6,2.2,1.4c0.5-0.8,1.2-1.4,2.5-1.4
			c1.6,0,2.6,1.1,2.6,2.8v4.3h-1v-4.1c0-1.4-0.7-2.1-1.8-2.1c-1.1,0-1.9,0.8-1.9,2.2v4h-1v-4.1c0-1.3-0.7-2.1-1.8-2.1
			c-1.1,0-1.9,0.9-1.9,2.2v4h-1V310.7z"/>
		<path class="st8" d="M101.8,331.9c0-1.5,1.2-2.3,3-2.3c0.9,0,1.5,0.1,2.1,0.3v-0.2c0-1.2-0.8-1.9-2.1-1.9c-0.8,0-1.5,0.2-2.1,0.5
			l-0.3-0.9c0.8-0.4,1.5-0.6,2.5-0.6c1,0,1.8,0.3,2.3,0.8c0.5,0.5,0.7,1.2,0.7,2.1v4.3h-1v-1c-0.5,0.6-1.3,1.2-2.5,1.2
			C103.1,334.1,101.8,333.3,101.8,331.9z M107,331.3v-0.7c-0.5-0.1-1.2-0.3-2-0.3c-1.3,0-2,0.6-2,1.4c0,0.9,0.8,1.4,1.8,1.4
			C105.9,333.2,107,332.5,107,331.3z"/>
		<path class="st8" d="M109.6,333l0.5-0.7c0.8,0.6,1.6,0.9,2.4,0.9c0.8,0,1.4-0.4,1.4-1.1c0-0.7-0.8-1-1.7-1.2
			c-1.1-0.3-2.3-0.7-2.3-2c0-1.2,1-2,2.4-2c0.9,0,1.8,0.3,2.5,0.8l-0.5,0.8c-0.6-0.4-1.4-0.7-2.1-0.7c-0.8,0-1.4,0.4-1.4,1
			c0,0.7,0.9,0.9,1.8,1.2c1.1,0.3,2.2,0.7,2.2,2c0,1.3-1.1,2.1-2.5,2.1C111.5,334,110.4,333.7,109.6,333z"/>
		<path class="st8" d="M116.3,333l0.5-0.7c0.8,0.6,1.6,0.9,2.4,0.9c0.8,0,1.4-0.4,1.4-1.1c0-0.7-0.8-1-1.7-1.2
			c-1.1-0.3-2.3-0.7-2.3-2c0-1.2,1-2,2.4-2c0.9,0,1.8,0.3,2.5,0.8l-0.5,0.8c-0.6-0.4-1.4-0.7-2.1-0.7c-0.8,0-1.4,0.4-1.4,1
			c0,0.7,0.9,0.9,1.8,1.2c1.1,0.3,2.2,0.7,2.2,2c0,1.3-1.1,2.1-2.5,2.1C118.2,334,117.1,333.7,116.3,333z"/>
		<path class="st8" d="M123.7,324.2h1.2v1.2h-1.2V324.2z M123.8,326.9h1v7h-1V326.9z"/>
		<path class="st8" d="M126.6,333l0.5-0.7c0.8,0.6,1.6,0.9,2.4,0.9c0.8,0,1.4-0.4,1.4-1.1c0-0.7-0.8-1-1.7-1.2
			c-1.1-0.3-2.3-0.7-2.3-2c0-1.2,1-2,2.4-2c0.9,0,1.8,0.3,2.5,0.8l-0.5,0.8c-0.6-0.4-1.4-0.7-2.1-0.7c-0.8,0-1.4,0.4-1.4,1
			c0,0.7,0.9,0.9,1.8,1.2c1.1,0.3,2.2,0.7,2.2,2c0,1.3-1.1,2.1-2.5,2.1C128.5,334,127.4,333.7,126.6,333z"/>
		<path class="st8" d="M134.3,332.1v-4.2h-1v-0.9h1v-2.1h1v2.1h2.2v0.9h-2.2v4.1c0,0.9,0.5,1.2,1.2,1.2c0.4,0,0.6-0.1,1-0.2v0.9
			c-0.4,0.2-0.8,0.3-1.3,0.3C135.2,334,134.3,333.5,134.3,332.1z"/>
		<path class="st8" d="M138.9,331.9c0-1.5,1.2-2.3,3-2.3c0.9,0,1.5,0.1,2.1,0.3v-0.2c0-1.2-0.8-1.9-2.1-1.9c-0.8,0-1.5,0.2-2.1,0.5
			l-0.3-0.9c0.8-0.4,1.5-0.6,2.5-0.6c1,0,1.8,0.3,2.3,0.8c0.5,0.5,0.7,1.2,0.7,2.1v4.3h-1v-1c-0.5,0.6-1.3,1.2-2.5,1.2
			C140.2,334.1,138.9,333.3,138.9,331.9z M144.1,331.3v-0.7c-0.5-0.1-1.2-0.3-2-0.3c-1.3,0-2,0.6-2,1.4c0,0.9,0.8,1.4,1.8,1.4
			C143,333.2,144.1,332.5,144.1,331.3z"/>
		<path class="st8" d="M147.3,326.9h1v1.2c0.5-0.8,1.2-1.4,2.4-1.4c1.7,0,2.7,1.1,2.7,2.8v4.3h-1v-4.1c0-1.3-0.7-2.1-1.9-2.1
			c-1.2,0-2.1,0.9-2.1,2.2v4h-1V326.9z"/>
		<path class="st8" d="M156,332.1v-4.2h-1v-0.9h1v-2.1h1v2.1h2.2v0.9H157v4.1c0,0.9,0.5,1.2,1.2,1.2c0.4,0,0.6-0.1,1-0.2v0.9
			c-0.4,0.2-0.8,0.3-1.3,0.3C156.8,334,156,333.5,156,332.1z"/>
		<path class="st8" d="M89.6,346.7c0-2,1.5-3.7,3.7-3.7c2.1,0,3.6,1.7,3.6,3.7c0,2-1.6,3.7-3.7,3.7
			C91.1,350.3,89.6,348.7,89.6,346.7z M95.8,346.7c0-1.5-1.1-2.7-2.6-2.7c-1.5,0-2.6,1.2-2.6,2.7c0,1.5,1.1,2.7,2.6,2.7
			C94.8,349.4,95.8,348.2,95.8,346.7z"/>
		<path class="st8" d="M99.2,344.1h-1v-0.9h1v-0.6c0-0.8,0.2-1.4,0.6-1.8c0.4-0.4,0.9-0.5,1.5-0.5c0.5,0,0.8,0.1,1.2,0.2v0.9
			c-0.4-0.1-0.7-0.2-1-0.2c-0.8,0-1.2,0.5-1.2,1.5v0.6h2.2v0.9h-2.2v6.1h-1V344.1z"/>
		<path class="st8" d="M108.2,348.3v-4.2h-1v-0.9h1v-2.1h1v2.1h2.2v0.9h-2.2v4.1c0,0.9,0.5,1.2,1.2,1.2c0.4,0,0.6-0.1,1-0.2v0.9
			c-0.4,0.2-0.8,0.3-1.3,0.3C109,350.3,108.2,349.7,108.2,348.3z"/>
		<path class="st8" d="M113.3,340.3h1v4.1c0.5-0.8,1.2-1.4,2.4-1.4c1.7,0,2.7,1.1,2.7,2.8v4.3h-1v-4.1c0-1.3-0.7-2.1-1.9-2.1
			c-1.2,0-2.1,0.9-2.1,2.2v4h-1V340.3z"/>
		<path class="st8" d="M121.6,340.5h1.2v1.2h-1.2V340.5z M121.7,343.2h1v7h-1V343.2z"/>
		<path class="st8" d="M124.6,349.3l0.5-0.7c0.8,0.6,1.6,0.9,2.4,0.9c0.8,0,1.4-0.4,1.4-1.1c0-0.7-0.8-1-1.7-1.2
			c-1.1-0.3-2.3-0.7-2.3-2c0-1.2,1-2,2.4-2c0.9,0,1.8,0.3,2.5,0.8l-0.5,0.8c-0.6-0.4-1.4-0.7-2.1-0.7c-0.8,0-1.4,0.4-1.4,1
			c0,0.7,0.9,0.9,1.8,1.2c1.1,0.3,2.2,0.7,2.2,2c0,1.3-1.1,2.1-2.5,2.1C126.5,350.3,125.4,349.9,124.6,349.3z"/>
		<path class="st8" d="M136,340.3h1v4.1c0.5-0.8,1.2-1.4,2.4-1.4c1.7,0,2.7,1.1,2.7,2.8v4.3h-1v-4.1c0-1.3-0.7-2.1-1.9-2.1
			c-1.2,0-2.1,0.9-2.1,2.2v4h-1V340.3z"/>
		<path class="st8" d="M143.9,346.7c0-2,1.5-3.7,3.7-3.7c2.1,0,3.6,1.7,3.6,3.7c0,2-1.6,3.7-3.7,3.7
			C145.4,350.3,143.9,348.7,143.9,346.7z M150.1,346.7c0-1.5-1.1-2.7-2.6-2.7c-1.5,0-2.6,1.2-2.6,2.7c0,1.5,1.1,2.7,2.6,2.7
			C149,349.4,150.1,348.2,150.1,346.7z"/>
		<path class="st8" d="M153.4,348.3v-4.2h-1v-0.9h1v-2.1h1v2.1h2.2v0.9h-2.2v4.1c0,0.9,0.5,1.2,1.2,1.2c0.4,0,0.6-0.1,1-0.2v0.9
			c-0.4,0.2-0.8,0.3-1.3,0.3C154.3,350.3,153.4,349.7,153.4,348.3z"/>
		<path class="st8" d="M161.6,349.4c1,0,1.6-0.4,2.2-1l0.6,0.6c-0.7,0.8-1.6,1.3-2.9,1.3c-1.9,0-3.5-1.5-3.5-3.7
			c0-2,1.4-3.7,3.4-3.7c2.1,0,3.3,1.7,3.3,3.7c0,0.1,0,0.2,0,0.4h-5.5C159.3,348.6,160.4,349.4,161.6,349.4z M163.7,346.2
			c-0.1-1.3-0.9-2.4-2.2-2.4c-1.2,0-2.1,1-2.3,2.4H163.7z"/>
		<path class="st8" d="M166.6,340.3h1v9.9h-1V340.3z"/>
		<path class="st8" d="M170,348.7h1.2v1.4H170V348.7z"/>
		<path class="st8" d="M82.1,356.9h1.1v4.2h5.5v-4.2h1.1v9.5h-1.1v-4.3h-5.5v4.3h-1.1V356.9z"/>
		<path class="st8" d="M91.8,362.9c0-2,1.5-3.7,3.7-3.7c2.1,0,3.6,1.7,3.6,3.7c0,2-1.6,3.7-3.7,3.7
			C93.3,366.6,91.8,364.9,91.8,362.9z M98,362.9c0-1.5-1.1-2.7-2.6-2.7c-1.5,0-2.6,1.2-2.6,2.7c0,1.5,1.1,2.7,2.6,2.7
			C96.9,365.6,98,364.4,98,362.9z"/>
		<path class="st8" d="M100.3,359.4h1.1l1.8,5.6l1.9-5.6h0.9l1.9,5.6l1.8-5.6h1.1l-2.5,7.1h-0.9l-1.9-5.5l-1.9,5.5h-0.9L100.3,359.4
			z"/>
		<path class="st8" d="M116.2,362.9c0-2,1.5-3.7,3.6-3.7c1.3,0,2.2,0.6,2.8,1.2l-0.7,0.7c-0.6-0.6-1.2-1-2.2-1
			c-1.4,0-2.5,1.2-2.5,2.7c0,1.5,1.1,2.7,2.6,2.7c0.9,0,1.6-0.5,2.1-1.1l0.7,0.6c-0.7,0.8-1.5,1.4-2.9,1.4
			C117.8,366.6,116.2,364.9,116.2,362.9z"/>
		<path class="st8" d="M123.9,364.3c0-1.5,1.2-2.3,3-2.3c0.9,0,1.5,0.1,2.1,0.3v-0.2c0-1.2-0.8-1.9-2.1-1.9c-0.8,0-1.5,0.2-2.1,0.5
			l-0.3-0.9c0.8-0.4,1.5-0.6,2.5-0.6c1,0,1.8,0.3,2.3,0.8c0.5,0.5,0.7,1.2,0.7,2.1v4.3h-1v-1c-0.5,0.6-1.3,1.2-2.5,1.2
			C125.2,366.6,123.9,365.8,123.9,364.3z M129,363.8v-0.7c-0.5-0.1-1.2-0.3-2-0.3c-1.3,0-2,0.6-2,1.4c0,0.9,0.8,1.4,1.8,1.4
			C128,365.7,129,364.9,129,363.8z"/>
		<path class="st8" d="M132.2,359.4h1v1.2c0.5-0.8,1.2-1.4,2.4-1.4c1.7,0,2.7,1.1,2.7,2.8v4.3h-1v-4.1c0-1.3-0.7-2.1-1.9-2.1
			c-1.2,0-2.1,0.9-2.1,2.2v4h-1V359.4z"/>
		<path class="st8" d="M144.9,356.9h1.1v9.5h-1.1V356.9z"/>
		<path class="st8" d="M152.6,356.5h1v4.1c0.5-0.8,1.2-1.4,2.4-1.4c1.7,0,2.7,1.1,2.7,2.8v4.3h-1v-4.1c0-1.3-0.7-2.1-1.9-2.1
			c-1.2,0-2.1,0.9-2.1,2.2v4h-1V356.5z"/>
		<path class="st8" d="M164,365.7c1,0,1.6-0.4,2.2-1l0.6,0.6c-0.7,0.8-1.6,1.3-2.9,1.3c-1.9,0-3.5-1.5-3.5-3.7c0-2,1.4-3.7,3.4-3.7
			c2.1,0,3.3,1.7,3.3,3.7c0,0.1,0,0.2,0,0.4h-5.5C161.7,364.8,162.8,365.7,164,365.7z M166.1,362.5c-0.1-1.3-0.9-2.4-2.2-2.4
			c-1.2,0-2.1,1-2.3,2.4H166.1z"/>
		<path class="st8" d="M169.1,356.5h1v9.9h-1V356.5z"/>
		<path class="st8" d="M172.5,359.4h1v1.4c0.6-0.8,1.4-1.6,2.7-1.6c1.7,0,3.3,1.3,3.3,3.7c0,2.3-1.7,3.6-3.3,3.6
			c-1.3,0-2.1-0.7-2.7-1.5v3.5h-1V359.4z M178.5,362.9c0-1.7-1.1-2.7-2.5-2.7c-1.3,0-2.5,1.1-2.5,2.7s1.2,2.7,2.5,2.7
			C177.4,365.6,178.5,364.6,178.5,362.9z"/>
		<path class="st8" d="M115.1,384.5l0.4-0.8c0.3,0.2,0.7,0.3,1.1,0.3c0.6,0,1-0.3,1.4-1.3l-3.2-7h1.2l2.5,5.8l2.2-5.8h1.1l-2.9,7.2
			c-0.6,1.4-1.3,2-2.3,2C116,384.9,115.6,384.7,115.1,384.5z"/>
		<path class="st8" d="M123.1,379.2c0-2,1.5-3.7,3.7-3.7c2.1,0,3.6,1.7,3.6,3.7c0,2-1.6,3.7-3.7,3.7
			C124.6,382.8,123.1,381.2,123.1,379.2z M129.3,379.2c0-1.5-1.1-2.7-2.6-2.7c-1.5,0-2.6,1.2-2.6,2.7c0,1.5,1.1,2.7,2.6,2.7
			C128.3,381.9,129.3,380.7,129.3,379.2z"/>
		<path class="st8" d="M132.2,380v-4.3h1v4.1c0,1.3,0.7,2.1,1.9,2.1c1.2,0,2.1-0.9,2.1-2.2v-4h1v7h-1v-1.2c-0.5,0.8-1.2,1.4-2.4,1.4
			C133.2,382.8,132.2,381.7,132.2,380z"/>
		<path class="st8" d="M142.2,377.8L142.2,377.8c1.8-0.1,2.8-0.8,2.8-2c0-1-0.8-1.8-2-1.8c-1,0-1.8,0.5-2.5,1.3l-0.7-0.7
			c0.8-0.9,1.7-1.6,3.2-1.6c1.8,0,3,1.1,3,2.7c0,1.7-1.3,2.5-2.8,2.7l-0.1,1.5h-0.7L142.2,377.8z M142.2,381.2h1.2v1.4h-1.2V381.2z"
			/>
	</g>
</g>
</svg>
