<?xml version="1.0" encoding="utf-8"?>
<!-- Generator: Adobe Illustrator 21.1.0, SVG Export Plug-In . SVG Version: 6.00 Build 0)  -->
<svg version="1.1" id="Слой_1" xmlns="http://www.w3.org/2000/svg" xmlns:xlink="http://www.w3.org/1999/xlink" x="0px" y="0px"
	 viewBox="0 0 420.9 578.3" style="enable-background:new 0 0 420.9 578.3;" xml:space="preserve">
<style type="text/css">
	.st0{fill:#197D71;}
	.st1{fill:#FBB03B;}
	.st2{fill:none;stroke:#FFFFFF;stroke-width:0.5;}
	.st3{fill:none;stroke:#FFFFFF;stroke-width:2;}
	.st4{fill:#FFFFFF;}
	.st5{fill:#197D71;stroke:#FFFFFF;stroke-width:2;}
	.st6{fill:#FBB03B;stroke:#FFFFFF;}
	.st7{fill:none;stroke:#FFFFFF;stroke-width:0.75;}
	.st8{fill:none;stroke:#FFFFFF;stroke-width:0.75;stroke-linejoin:round;}
	.st9{fill:none;stroke:#FFFFFF;stroke-width:0.75;stroke-linecap:round;stroke-linejoin:round;}
	.st10{fill:#197D71;stroke:#FFFFFF;}
	.st11{fill:none;stroke:#FFFFFF;stroke-width:0.25;}
	.st12{fill:none;stroke:#FFFFFF;stroke-width:0.75;stroke-linecap:round;}
	.st13{fill:none;stroke:#FFFFFF;stroke-linecap:round;}
</style>
<g>
	<path class="st0" d="M243.3,546.2h46.2v-2.6h-46.2V546.2z M311.5,461.3h-90.1c-2.5,0-4.5,2-4.5,4.5v63.5c0,2.5,2,4.5,4.5,4.5h90.1
		c2.5,0,4.5-2,4.5-4.5v-63.5C315.9,463.3,313.9,461.3,311.5,461.3z M286.4,543.6c-4.1-5.1-3.5-9.9-3.5-9.9h-33c0,0,1,5.6-3.3,9.9
		H286.4z"/>
	<path class="st1" d="M273.4,32.7h-32.6c-2.4,0-4.3,2-4.3,4.5v76c0,2.5,1.9,4.5,4.3,4.5h32.6c2.4,0,4.3-2,4.3-4.5v-76
		C277.7,34.7,275.8,32.7,273.4,32.7z"/>
	<path class="st2" d="M289.5,543.6h-46.2v2.6h46.2V543.6z M286.4,543.6h-39.8c4.3-4.3,3.3-9.9,3.3-9.9h33
		C282.9,533.7,282.3,538.5,286.4,543.6z M311.9,519.8h-91v-53.7h91V519.8z M315.9,529.3c0,2.5-2,4.5-4.5,4.5h-90.1
		c-2.5,0-4.5-2-4.5-4.5v-63.5c0-2.5,2-4.5,4.5-4.5h90.1c2.5,0,4.5,2,4.5,4.5V529.3z"/>
	<path class="st2" d="M260.8,111.4c0-2.1-1.7-3.8-3.7-3.8c-2.1,0-3.7,1.7-3.7,3.8c0,2.1,1.7,3.8,3.7,3.8
		C259.1,115.3,260.8,113.5,260.8,111.4z M261.3,36.7c0,0.3-0.2,0.5-0.4,0.5h-7.6c-0.2,0-0.4-0.2-0.4-0.5c0-0.3,0.2-0.5,0.4-0.5h7.6
		C261.1,36.2,261.3,36.4,261.3,36.7z M275.1,105.2H239V40.7h36.1V105.2z M277.7,113.2c0,2.5-1.9,4.5-4.3,4.5h-32.6
		c-2.4,0-4.3-2-4.3-4.5v-76c0-2.5,1.9-4.5,4.3-4.5h32.6c2.4,0,4.3,2,4.3,4.5V113.2z"/>
	<path class="st1" d="M408.5,75.2c0,40.6-32.9,73.5-73.5,73.5c-40.6,0-73.5-32.9-73.5-73.5c0-40.6,32.9-73.5,73.5-73.5
		C375.6,1.7,408.5,34.6,408.5,75.2"/>
	<path class="st0" d="M408.5,503.8c0,40.6-32.9,73.5-73.5,73.5c-40.6,0-73.5-32.9-73.5-73.5c0-40.6,32.9-73.5,73.5-73.5
		C375.6,430.3,408.5,463.2,408.5,503.8"/>
	<line class="st3" x1="335" y1="147.8" x2="335" y2="311.2"/>
	<line class="st3" x1="335" y1="264.1" x2="335" y2="430.3"/>
	<circle class="st3" cx="335" cy="75.2" r="73.5"/>
	<circle class="st3" cx="335" cy="503.8" r="73.5"/>
	<g>
		<path class="st4" d="M304.4,75.5c0-3.6,2.8-6.6,6.7-6.6c2.3,0,3.7,0.6,5,1.7l-1.8,2.1c-1-0.8-1.9-1.3-3.3-1.3c-2,0-3.6,1.8-3.6,4
			c0,2.3,1.6,4,3.8,4c1,0,1.9-0.3,2.6-0.8v-1.8h-2.8v-2.4h5.5V80c-1.3,1.1-3.1,2-5.4,2C307.1,82,304.4,79.3,304.4,75.5z"/>
		<path class="st4" d="M318.9,76.4v-7.3h2.8v7.2c0,2.1,1,3.1,2.7,3.1c1.7,0,2.7-1,2.7-3v-7.3h2.8v7.2c0,3.8-2.2,5.7-5.6,5.7
			C321,82,318.9,80.1,318.9,76.4z"/>
		<path class="st4" d="M332.9,69.1h9.6v2.5h-6.8v2.6h6v2.5h-6v2.7h6.9v2.5h-9.7V69.1z"/>
		<path class="st4" d="M344.1,80l1.7-2c1.1,0.9,2.3,1.5,3.8,1.5c1.1,0,1.8-0.5,1.8-1.2c0-0.7-0.4-1.1-2.6-1.6
			c-2.6-0.7-4.2-1.4-4.2-3.9c0-2.3,1.9-3.8,4.4-3.8c1.9,0,3.4,0.6,4.7,1.6l-1.5,2.1c-1.1-0.8-2.2-1.3-3.3-1.3
			c-1.1,0-1.6,0.5-1.6,1.1c0,0.8,0.5,1.1,2.7,1.7c2.6,0.7,4,1.6,4,3.8c0,2.5-1.9,3.9-4.7,3.9C347.6,82,345.7,81.3,344.1,80z"/>
		<path class="st4" d="M359.3,71.7h-3.9v-2.6H366v2.6h-3.9v10.1h-2.8V71.7z"/>
	</g>
	<g>
		<path class="st4" d="M305.8,508.5l1.7-2c1.1,0.9,2.3,1.5,3.8,1.5c1.1,0,1.8-0.5,1.8-1.2c0-0.7-0.4-1.1-2.6-1.6
			c-2.6-0.7-4.2-1.4-4.2-3.9c0-2.3,1.9-3.8,4.4-3.8c1.9,0,3.4,0.6,4.7,1.6l-1.5,2.1c-1.1-0.8-2.2-1.3-3.3-1.3
			c-1.1,0-1.6,0.5-1.6,1.1c0,0.8,0.5,1.1,2.7,1.7c2.6,0.7,4,1.6,4,3.8c0,2.5-1.9,3.9-4.7,3.9C309.3,510.6,307.4,509.9,305.8,508.5z"
			/>
		<path class="st4" d="M321,500.3h-3.9v-2.6h10.5v2.6h-3.9v10.1H321V500.3z"/>
		<path class="st4" d="M332.5,497.6h2.6l5.4,12.8h-2.9l-1.2-2.8h-5.4l-1.2,2.8h-2.8L332.5,497.6z M335.5,505.1l-1.7-4.1l-1.7,4.1
			H335.5z"/>
		<path class="st4" d="M342.5,497.7h9.7v2.5h-6.9v2.7h6.1v2.5h-6.1v4.9h-2.8V497.7z"/>
		<path class="st4" d="M354.4,497.7h9.7v2.5h-6.9v2.7h6.1v2.5h-6.1v4.9h-2.8V497.7z"/>
	</g>
	<g>
		<path class="st5" d="M335,373.7c46.5,0,84.2-37.7,84.2-84.2c0-46.5-37.7-84.2-84.2-84.2c-46.5,0-84.2,37.7-84.2,84.2
			C250.8,336,288.5,373.7,335,373.7"/>
	</g>
	<g>
		<polygon class="st1" points="284.5,288.3 387.3,288.3 387.5,330.4 383.7,335.8 356.9,335.8 348.3,348.8 339.3,336.5 288,335.5 
			282.4,330.4 		"/>
		<g>
			<path class="st4" d="M373.9,273.8h-8.2c-0.9,0-1.6-0.6-1.6-1.5v-14.1c0-0.8,0.7-1.5,1.6-1.5c0.8,0,1.5,0.7,1.5,1.5v12.4h6.7
				C376.3,270.5,376.4,273.8,373.9,273.8 M359.7,273.8h-9.3c-0.9,0-1.5-0.7-1.5-1.5v-14.1c0-0.9,0.7-1.5,1.5-1.5h8.9
				c2.3,0,2.2,3.2,0,3.2h-7.1v3.7h6.2c2.2,0,2.2,3.2,0,3.2h-6.2v3.7h7.6C362,270.5,362.2,273.8,359.7,273.8 M344.9,259.7h-4.1v12.5
				c0,2.2-3.3,2.2-3.3,0v-12.5h-4.3c-2.2,0-2.2-3.2,0-3.2h11.7C347.1,256.6,347.1,259.7,344.9,259.7 M321,274
				c-4.6,0.2-9.3-2.8-9.3-8.9c0-6.1,4.8-9.1,9.3-9.1c4.3,0.2,8.9,3.2,8.9,9.1C329.8,271,325.3,274,321,274 M308.8,272.2
				c0,0.9-0.7,1.5-1.5,1.5c-0.9,0-1.7-0.7-1.7-1.5v-5.4h-8.1v5.4c0,0.9-0.6,1.5-1.5,1.5c-1.1,0-1.8-0.7-1.8-1.5v-14.1
				c0-0.9,0.6-1.5,1.8-1.5c0.9,0,1.5,0.6,1.5,1.5v5.4h8.1v-5.4c0-0.9,0.8-1.5,1.7-1.5c0.9,0,1.5,0.6,1.5,1.5V272.2z M380.6,244.1
				h-91.3c-4.4,0-7.9,3.6-7.9,7.9v30.8h107.1V252C388.6,247.6,385,244.1,380.6,244.1 M320.7,259.2c-2.8,0-5.8,2-5.8,5.9
				c0,3.9,3,5.9,5.8,5.9c2.8,0,5.9-2,5.9-5.9C326.6,261.2,323.5,259.2,320.7,259.2"/>
			<path class="st4" d="M304.9,322.3c2.5,0,5.1-0.4,7.2-2.4c1.1-1.1,0.8-2.2,0.3-2.9c-0.5-0.7-1.9-1.1-2.8-0.4c-1.4,1.3-3,2-4.8,2
				c-4.7,0-7-3.5-7-7.3c0-3.7,2.3-7.1,7-7.1c1.7,0,3,0.4,4.3,1.7c0.7,0.7,2,0.8,2.8,0.1c0.8-0.9,0.7-2.2-0.1-3
				c-2.2-1.9-4.3-2.7-7-2.7c-7,0-10.7,5.1-10.7,11C294.2,317.2,297.5,322.3,304.9,322.3 M359.3,304.7h5.3v15.4c0,2.7,4,2.7,4,0
				v-15.4h5.1c2.7,0,2.7-3.9,0-3.9h-14.4C356.6,300.8,356.6,304.7,359.3,304.7 M318.7,322.1c1.1,0,1.9-0.8,1.9-1.9v-6.7h10v6.7
				c0,1.1,1,1.9,2.1,1.9c1.1,0,1.9-0.8,1.9-1.9v-17.3c0-1.1-0.8-1.9-1.9-1.9c-1.1,0-2.1,0.8-2.1,1.9v6.7h-10v-6.7
				c0-1.1-0.8-1.9-1.9-1.9c-1.4,0-2.2,0.8-2.2,1.9v17.3C316.5,321.2,317.3,322.1,318.7,322.1 M348,306.8l3.4,7.5h-7.2L348,306.8z
				 M338.3,322.1c1.1,0.2,2.2,0,2.7-1l1.3-2.7h11.3l1.3,2.7c1.1,2.4,4.8,0.5,3.5-1.9l-8.6-17.1c-0.8-1.7-3-1.6-3.8,0l-8.8,17.1
				C336.7,320.4,337.3,321.5,338.3,322.1"/>
			<path class="st4" d="M384.8,290.6h-99.6v38.5c0,2.3,1.9,4.1,4.1,4.1h47.9h2l1.1,1.6l0.2,0.3l6.7,9.7l7-10l1.1-1.6h2h23.2
				c2.3,0,4.1-1.9,4.1-4.1V290.6z M388.6,286.8v42.3c0,4.4-3.6,7.9-7.9,7.9h-23.2l-10.1,14.5l-9.9-14.2l-0.2-0.3h-47.9
				c-4.4,0-7.9-3.6-7.9-7.9v-42.3H388.6z"/>
		</g>
	</g>
	<g>
		<circle class="st6" cx="36.9" cy="75.2" r="16.4"/>
		<circle class="st6" cx="84.3" cy="75.2" r="16.4"/>
		<circle class="st6" cx="131.6" cy="75.2" r="16.4"/>
		<circle class="st7" cx="131.6" cy="75.2" r="9.1"/>
		<circle class="st6" cx="178.9" cy="75.2" r="16.4"/>
		<g>
			<path class="st4" d="M28.4,81.9h0.8l1,3.1l1-3.1h0.6l1,3.1l1-3.1h0.8l-1.5,4.3h-0.6l-1-3l-1,3h-0.6L28.4,81.9z"/>
			<path class="st4" d="M35.4,81.7h0.8v0.7h-0.8V81.7z M35.4,82.9h0.7v3.2h-0.7V82.9z"/>
			<path class="st4" d="M36.9,83.9h1.8v0.7h-1.8V83.9z"/>
			<path class="st4" d="M39.6,81.9h3.1v0.7h-2.4v1.2h2.1v0.7h-2.1v1.7h-0.7V81.9z"/>
			<path class="st4" d="M43.5,81.7h0.8v0.7h-0.8V81.7z M43.5,82.9h0.7v3.2h-0.7V82.9z"/>
		</g>
		<g>
			<path class="st4" d="M130.1,75.7v0.9h3.5v0.8h-3.5v2.2H129v-2.2h-0.6v-0.8h0.6v-0.9h-0.6v-1h0.6v-3.8h2.7c0.8,0,1.4,0.1,1.8,0.2
				c0.4,0.2,0.7,0.4,1,0.8c0.2,0.4,0.4,0.8,0.4,1.3c0,0.5-0.1,0.9-0.3,1.2c-0.2,0.3-0.4,0.6-0.7,0.8c-0.3,0.2-0.6,0.3-1,0.4
				c-0.4,0.1-0.8,0.1-1.2,0.1H130.1z M131.6,74.8c0.3,0,0.5,0,0.8-0.1c0.2,0,0.5-0.1,0.6-0.2c0.2-0.1,0.3-0.3,0.4-0.4
				c0.1-0.2,0.2-0.4,0.2-0.7c0-0.3,0-0.5-0.1-0.6c-0.1-0.2-0.2-0.3-0.4-0.4c-0.2-0.1-0.4-0.2-0.6-0.2c-0.2-0.1-0.5-0.1-0.7-0.1h-1.6
				v2.9H131.6z"/>
		</g>
		<g>
			<path class="st4" d="M177.8,74.9L177.8,74.9c1.8-0.1,2.6-0.7,2.6-1.6c0-0.8-0.6-1.3-1.6-1.3c-0.9,0-1.6,0.4-2.2,1.1l-1-1.1
				c0.8-0.9,1.8-1.5,3.3-1.5c1.9,0,3.2,1.1,3.2,2.8c0,1.7-1.2,2.5-2.7,2.7l-0.1,1.1h-1.1L177.8,74.9z M177.7,78.3h1.8v1.9h-1.8V78.3
				z"/>
		</g>
		<path class="st8" d="M188,75.1c0-5.1-4.1-9.2-9.1-9.2c-5,0-9.1,4.1-9.1,9.2c0,5.1,4.1,9.2,9.1,9.2c1,0,2-0.2,2.9-0.5
			c0.5,0.7,1.4,2.5-0.3,4.8c-0.2,0.2-0.1,0.5,0,0.7c0.2,0.2,0.5,0.2,0.7,0.1c0.1,0,5.2-3.2,3.8-8.7C187.4,79,188,77.1,188,75.1z"/>
		<path class="st4" d="M37.8,76.8c0-0.5-0.4-0.9-0.9-0.9c-0.5,0-0.9,0.4-0.9,0.9s0.4,0.9,0.9,0.9C37.4,77.8,37.8,77.3,37.8,76.8"/>
		<path class="st9" d="M34.8,74.5c0,0,0.7-0.9,2.1-0.9c1.3,0,2,0.8,2,0.8 M32.7,72.7c0,0,1.5-1.8,4.2-1.8c2.7,0,4.1,1.6,4.1,1.6
			 M30.6,70.9c0,0,2.3-2.8,6.4-2.8c4.1,0,6.2,2.5,6.2,2.5 M28.4,68.9c0,0,3.1-3.7,8.5-3.7s8.3,3.4,8.3,3.4"/>
		<g>
			<path class="st4" d="M80.3,70.9l-1.4-3.1l-1.4,3.1H80.3z M78.6,67h0.6l2.8,6.2h-0.7l-0.7-1.6h-3.3l-0.7,1.6h-0.7L78.6,67z"/>
			<g>
				<path class="st4" d="M87,70.9c0-1.1-0.7-1.7-1.6-1.7c-0.8,0-1.6,0.7-1.6,1.8c0,1,0.8,1.7,1.6,1.7C86.2,72.6,87,72,87,70.9
					 M83.8,72.3v0.9h-0.7v-6.4h0.7v2.8c0.4-0.5,0.9-1,1.7-1c1.1,0,2.2,0.9,2.2,2.4c0,1.5-1.1,2.4-2.2,2.4
					C84.6,73.2,84.1,72.8,83.8,72.3"/>
				<path class="st4" d="M88.6,70.9c0-1.3,1-2.4,2.3-2.4c0.9,0,1.4,0.4,1.8,0.8l-0.4,0.5c-0.4-0.4-0.8-0.7-1.4-0.7
					c-0.9,0-1.6,0.8-1.6,1.8c0,1,0.7,1.8,1.7,1.8c0.6,0,1-0.3,1.4-0.7l0.4,0.4c-0.5,0.5-1,0.9-1.8,0.9
					C89.6,73.2,88.6,72.2,88.6,70.9"/>
				<path class="st4" d="M82.5,78.8h-1.2v0.6h1.2V78.8z M80.5,78.3h1.1v-0.6h-1.1V78.3z M80.7,78.8h-1v0.6h1V78.8z M78.7,77.7v-0.5
					h1.2v-0.7h0.6c0.2,0,0.2,0.1,0,0.2v0.5h1.1v-0.7h0.6c0.2,0,0.2,0.1,0,0.2v0.5h1.3v0.5h-1.3v0.6h0.9V80h-1.8v0.5h1.9V81h-1.9
					l0,0.5h2.3v0.5h-2.2c0.3,0.5,1.1,0.9,2.3,1.1l-0.2,0.7c-1.1-0.2-2-0.7-2.5-1.4c-0.5,0.9-1.4,1.3-2.7,1.4l-0.2-0.7
					c1.3-0.1,2.1-0.5,2.4-1.2h-2v-0.5h2.1l0-0.5H79v-0.5h1.7V80h-0.8h-0.8v-1.7h0.8v-0.6H78.7z M78,78.1c-0.3-0.3-0.7-0.6-1-0.8
					l0.4-0.6c0.4,0.2,0.8,0.5,1,0.7L78,78.1z M77.8,80.1c-0.3-0.3-0.7-0.5-1.1-0.8l0.4-0.6c0.4,0.2,0.8,0.4,1.1,0.7L77.8,80.1z
					 M76.5,83.3c0.5-0.9,0.8-1.7,1.1-2.5l0.5,0.5c-0.2,0.8-0.5,1.5-0.8,2.4c0,0.2-0.1,0.3-0.2,0.2L76.5,83.3z"/>
				<path class="st4" d="M88.8,77.4h3V79h-0.6v-1h-5.4v1.1h-0.6v-1.7h3v-0.9h0.7c0.2,0,0.2,0.1,0,0.3V77.4z M88.8,80.3v0.4H92v0.6
					h-3.2v1.9c0,0.3-0.2,0.5-0.5,0.5h-0.9l-0.2-0.6h0.8c0.1,0,0.1,0,0.1-0.1v-1.6h-3.3v-0.6h3.3v-0.8l0.3,0.1l0.9-0.6h-3.1v-0.6h3.7
					l0.1-0.1l0.5,0.5l-0.2,0.1L88.8,80.3z"/>
			</g>
			<rect x="74.7" y="74.8" class="st4" width="19.1" height="0.5"/>
		</g>
	</g>
	<g>
		<ellipse class="st10" cx="159.6" cy="503.8" rx="16.4" ry="16.4"/>
		<circle class="st10" cx="112.2" cy="503.8" r="16.4"/>
		<line class="st11" x1="153.2" y1="488.7" x2="153.2" y2="519.4"/>
		<line class="st11" x1="170.6" y1="491.6" x2="170.6" y2="516.5"/>
		<line class="st11" x1="157.6" y1="487.1" x2="157.6" y2="520.4"/>
		<line class="st11" x1="165.7" y1="488.7" x2="165.7" y2="519.4"/>
		<circle class="st10" cx="17.5" cy="503.8" r="16.4"/>
		<circle class="st10" cx="64.9" cy="503.8" r="16.4"/>
		<path class="st7" d="M121.2,503.8c0,5-4.1,9.1-9.1,9.1c-5,0-9.1-4.1-9.1-9.1c0-5,4.1-9.1,9.1-9.1
			C116.1,494.7,121.2,498.7,121.2,503.8z"/>
		<polyline class="st7" points="144.9,511.4 153.3,501.4 157.8,505.9 165.8,495.8 170.4,502.8 179.6,491.7 		"/>
		<path class="st4" d="M153.3,503.1c0.9,0,1.6-0.7,1.6-1.6c0-0.9-0.7-1.6-1.6-1.6c-0.9,0-1.6,0.7-1.6,1.6
			C151.7,502.4,152.4,503.1,153.3,503.1"/>
		<path class="st4" d="M157.6,507.4c0.9,0,1.6-0.7,1.6-1.6c0-0.9-0.7-1.6-1.6-1.6c-0.9,0-1.6,0.7-1.6,1.6
			C156,506.7,156.8,507.4,157.6,507.4"/>
		<path class="st4" d="M165.9,497.6c0.9,0,1.6-0.7,1.6-1.6c0-0.9-0.7-1.6-1.6-1.6c-0.9,0-1.6,0.7-1.6,1.6
			C164.3,496.8,165,497.6,165.9,497.6"/>
		<path class="st4" d="M170.5,504.2c0.9,0,1.6-0.7,1.6-1.6s-0.7-1.6-1.6-1.6c-0.9,0-1.6,0.7-1.6,1.6S169.6,504.2,170.5,504.2"/>
		<path class="st4" d="M179.6,493.5c0.9,0,1.6-0.7,1.6-1.6s-0.7-1.6-1.6-1.6c-0.9,0-1.6,0.7-1.6,1.6S178.7,493.5,179.6,493.5"/>
		<path class="st12" d="M22.1,503.8c0,2.8-2.3,5-5,5c-2.8,0-5-2.3-5-5c0-2.8,2.3-5,5-5C19.8,498.7,22.1,501,22.1,503.8z M5.3,503.8
			c0,0,10.4,11.2,24.6,0 M5.3,503.8c0,0,10.4-11.3,24.6,0"/>
		<path class="st4" d="M18.6,503.6c-0.7,0-1.2-0.5-1.2-1.2c0-0.5,0.3-1,0.8-1.1c-0.3-0.2-0.7-0.3-1.1-0.3c-1.4,0-2.6,1.2-2.6,2.6
			c0,1.4,1.1,2.6,2.6,2.6c1.4,0,2.6-1.1,2.6-2.6c0-0.2,0-0.3-0.1-0.5C19.4,503.3,19,503.6,18.6,503.6"/>
		<path class="st4" d="M68,497.7h-2.3c-0.1,2.6,0,5.3,0,8c1.2-1.7,3-3.1,4.9-4.2c-0.3-0.7-0.7-1.3-1-2c1.9,0.2,3.8,0.3,5.6,0.5
			c-0.8,1.8-1.6,3.5-2.4,5.3c-0.5-0.7-0.9-1.5-1.4-2.2c-1.9,1.1-3.4,2.5-4.5,4.4c-1.1-0.6-3.1-0.5-4,0.2c-1-2-2.7-3.4-4.5-4.6
			c-0.5,0.7-0.9,1.4-1.4,2.2c-0.8-1.7-1.6-3.5-2.4-5.3c1.8-0.2,3.8-0.3,5.6-0.5c-0.3,0.7-0.7,1.4-1,2c1.8,1.2,3.6,2.5,4.8,4.2v-7.9
			h-2.2c0-0.1,0.1-0.2,0.1-0.3c0.9-1.3,2-2.8,2.9-4.1C66,494.9,67,496.3,68,497.7"/>
		<path class="st4" d="M64.9,508.8c1.5-0.1,2.8,1,2.8,2.6c0,0.7-0.2,1.1-0.4,1.5c-0.5,0.8-1.4,1.3-2.5,1.2c-1.2-0.1-2.2-1.1-2.3-2.3
			c-0.1-1.1,0.4-2,1.2-2.5C64,509,64.3,508.9,64.9,508.8"/>
		<polyline class="st13" points="107.2,500.9 112.7,507.8 124.9,493.2 		"/>
	</g>
</g>
</svg>
