<?xml version="1.0" encoding="utf-8"?>
<!-- Generator: Adobe Illustrator 21.1.0, SVG Export Plug-In . SVG Version: 6.00 Build 0)  -->
<svg version="1.1" id="Слой_1" xmlns="http://www.w3.org/2000/svg" xmlns:xlink="http://www.w3.org/1999/xlink" x="0px" y="0px"
	 viewBox="0 0 87.6 87.6" style="enable-background:new 0 0 87.6 87.6;" xml:space="preserve">
<style type="text/css">
	.st0{fill:#FCAF3B;}
	.st1{fill:#FFFFFF;}
</style>
<g>
	<path class="st0" d="M5.6,72.5h41.3l0.9,1.4l0.2,0.3l5.6,8l5.8-8.3l0.9-1.4h20.8c1.9,0,3.4-1.5,3.4-3.4v-32H2.2V69
		C2.2,70.9,3.8,72.5,5.6,72.5z"/>
	<path class="st1" d="M32.2,13.2c-2.2,0-4.6,1.5-4.6,4.6s2.4,4.6,4.6,4.6c2.3,0,4.7-1.6,4.7-4.6C36.8,14.7,34.4,13.2,32.2,13.2z
		 M79.5,1.2H7.4C4,1.2,1.1,4,1.1,7.5v24.3h84.7V7.5C85.8,4,83,1.2,79.5,1.2z M22.8,23.4c0,0.7-0.5,1.2-1.2,1.2s-1.3-0.5-1.3-1.2
		v-4.3h-6.4v4.3c0,0.7-0.5,1.2-1.2,1.2c-0.9,0-1.4-0.5-1.4-1.2V12.3c0-0.7,0.5-1.2,1.4-1.2c0.7,0,1.2,0.5,1.2,1.2v4.3h6.4v-4.3
		c0-0.7,0.6-1.2,1.3-1.2c0.7,0,1.2,0.5,1.2,1.2V23.4z M32.4,24.8c-3.6,0.2-7.4-2.3-7.4-7c0-4.8,3.8-7.2,7.4-7.2c3.4,0.2,7,2.5,7,7.2
		C39.4,22.4,35.8,24.8,32.4,24.8z M51.3,13.5H48v9.9c0,1.7-2.6,1.7-2.6,0v-9.9H42c-1.7,0-1.7-2.5,0-2.5h9.3C53,11,53,13.5,51.3,13.5
		z M63,24.6h-7.4c-0.7,0-1.2-0.5-1.2-1.2V12.3c0-0.7,0.5-1.2,1.2-1.2h7c1.8,0,1.8,2.5,0,2.5H57v2.9h5c1.7,0,1.7,2.6,0,2.6h-4.9V22h6
		C64.8,22.1,65,24.6,63,24.6z M74.2,24.6h-6.5c-0.7,0-1.2-0.5-1.2-1.2V12.3c0-0.6,0.5-1.2,1.2-1.2c0.6,0,1.2,0.5,1.2,1.2v9.8h5.3
		C76.1,22.1,76.2,24.6,74.2,24.6z M46.1,63.3c0.9,0.2,1.8,0,2.1-0.8l1-2.1h8.9l1.1,2.1c0.9,1.9,3.8,0.4,2.8-1.5l-6.8-13.5
		c-0.6-1.3-2.3-1.3-3,0L45.3,61C44.8,62,45.3,62.9,46.1,63.3z M53.7,51.2l2.7,6h-5.7L53.7,51.2z M62.7,49.6h4.2v12.2
		c0,2.1,3.2,2.1,3.2,0V49.6h4c2.1,0,2.1-3.1,0-3.1H62.7C60.6,46.5,60.6,49.6,62.7,49.6z M19.7,63.5c2,0,4-0.3,5.7-1.9
		c0.8-0.8,0.7-1.7,0.3-2.3c-0.4-0.6-1.5-0.9-2.2-0.3c-1.1,1-2.4,1.5-3.8,1.5c-3.7,0-5.5-2.8-5.5-5.7s1.8-5.6,5.5-5.6
		c1.4,0,2.4,0.3,3.4,1.3c0.6,0.6,1.6,0.7,2.2,0.1c0.7-0.7,0.6-1.7-0.1-2.3c-1.8-1.5-3.4-2.1-5.5-2.1c-5.5,0-8.5,4-8.5,8.7
		C11.3,59.5,13.9,63.5,19.7,63.5z M1.1,68.4c0,3.5,2.8,6.3,6.3,6.3h38.3l0.2,0.3l7.8,11.2l8-11.5h17.8c3.5,0,6.3-2.8,6.3-6.3V35H1.1
		V68.4z M4.1,38h78.7v30.5c0,1.8-1.5,3.3-3.3,3.3H60.1L59.2,73l-5.5,7.9l-5.3-7.7L48.2,73l-0.9-1.3H7.4c-1.8,0-3.3-1.5-3.3-3.3
		C4.1,68.4,4.1,38,4.1,38z M30.6,63.3c0.8,0,1.5-0.7,1.5-1.5v-5.3H40v5.3c0,0.8,0.8,1.5,1.6,1.5s1.5-0.7,1.5-1.5V48.1
		c0-0.9-0.7-1.5-1.5-1.5c-0.9,0-1.6,0.6-1.6,1.5v5.3h-7.9v-5.3c0-0.9-0.6-1.5-1.5-1.5c-1.1,0-1.7,0.6-1.7,1.5v13.7
		C28.9,62.7,29.5,63.3,30.6,63.3z"/>
</g>
</svg>
