<?xml version="1.0" encoding="utf-8"?>
<!-- Generator: Adobe Illustrator 21.1.0, SVG Export Plug-In . SVG Version: 6.00 Build 0)  -->
<svg version="1.1" id="Слой_1" xmlns="http://www.w3.org/2000/svg" xmlns:xlink="http://www.w3.org/1999/xlink" x="0px" y="0px"
	 viewBox="0 0 671.5 171.5" style="enable-background:new 0 0 671.5 171.5;" xml:space="preserve">
<style type="text/css">
	.st0{fill:none;stroke:#FBB03D;stroke-width:2;}
	.st1{fill:#1A5B53;}
	.st2{fill:none;stroke:#E6A258;stroke-width:0.75;stroke-linecap:round;stroke-linejoin:round;}
	.st3{fill:none;stroke:#FBB03D;stroke-linejoin:round;}
	.st4{fill:#E6A258;}
	.st5{fill:none;stroke:#FBB03D;stroke-width:0.75;stroke-linejoin:round;}
	.st6{fill:none;stroke:#E6A258;stroke-width:0.75;}
	.st7{opacity:0.5;clip-path:url(#SVGID_2_);fill:#E6A258;enable-background:new    ;}
	.st8{fill:none;stroke:#E6A258;}
	.st9{fill:none;stroke:#E6A258;stroke-width:2;stroke-linecap:round;}
</style>
<g>
	<line class="st0" x1="563" y1="86.1" x2="33.3" y2="86.1"/>
	<path class="st1" d="M585.9,169.6c46.1,0,83.5-37.4,83.5-83.5S632,2.6,585.9,2.6S502.4,40,502.4,86.1
		C502.4,132.2,539.8,169.6,585.9,169.6"/>
	<circle class="st0" cx="585.9" cy="86" r="83.5"/>
	<g>
		<path class="st1" d="M178.8,137.7c28.5,0,51.6-23.1,51.6-51.6s-23.1-51.6-51.6-51.6s-51.6,23.1-51.6,51.6
			C127.2,114.6,150.3,137.7,178.8,137.7"/>
		<circle class="st0" cx="178.8" cy="86" r="51.6"/>
		<path class="st2" d="M188.9,69.1c0,0-4.8,5.4-7.5,4.2 M188.1,74.7c0,0-2.7-0.2-6.8,0.8 M168.7,69.1c0,0,4.8,5.4,7.5,4.2
			 M181.1,84.9c0,0-2,1.9-4.6,0 M169.6,74.7c0,0,2.7-0.2,6.8,0.8 M173.8,93.2c0,0,4.4-4.1,10.1,0 M178.8,122.8
			c11.3,0,21.6-4.4,29.3-11.7c-0.5-0.4-1.1-0.9-2.1-1.3c-2.8-1.3-15.5-6.3-18.7-7.5v0.1c0,0-2.3,3.8-8.4,3.8h-0.1h-0.1
			c-6.2,0-8.4-3.8-8.4-3.8v-0.1c-3.2,1.2-15.9,6.2-18.7,7.5c-0.9,0.4-1.6,0.9-2.1,1.3C157.2,118.4,167.5,122.8,178.8,122.8z
			 M194.6,58.3c-3.4-6.7-7.3-8.9-15.8-9.1c-8.5,0.2-12.4,2.3-15.8,9.1c-2.8,5.6-1.8,11.1-1.3,13.2c0.5,0.1,0.9,0.3,0.9,0.3l1.2,5.5
			h1.3v-9c0,0-1.2-4,2.3-6.7c3.1-2.5,7.4-3.2,11.5-3.3c4.1,0.1,8.4,0.8,11.5,3.3c3.4,2.7,2.3,6.7,2.3,6.7v9h1.3l1.2-5.5
			c0,0,0.4-0.2,0.9-0.3C196.4,69.5,197.4,63.9,194.6,58.3z M182.2,100.3c-1.3,0.3-2.4,0.3-3.4,0.3s-2.2,0-3.4-0.3
			c-1.4-0.3-3.1-1.5-4.7-3l-0.4,5.1c0,0,2.3,3.8,8.4,3.8h0.1h0.1c6.2,0,8.4-3.8,8.4-3.8l-0.4-5.1C185.4,98.8,183.6,100,182.2,100.3z
			 M195,71.8l-1.2,5.5h-1.3v-9c0,0,1.2-4-2.3-6.7c-3.1-2.5-7.4-3.2-11.5-3.3c-4.1,0.1-8.4,0.8-11.5,3.3c-3.4,2.7-2.3,6.7-2.3,6.7v9
			h-1.3l-1.2-5.5c0,0-4-2.1-2.8,5c1.3,7.1,5.3,6.4,5.3,6.4s0,5.4,0.7,7.8s6.1,8.6,9.5,9.3c1.3,0.3,2.4,0.3,3.4,0.3s2.2,0,3.4-0.3
			c3.4-0.7,8.9-6.9,9.5-9.3c0.7-2.4,0.7-7.8,0.7-7.8s4.1,0.8,5.3-6.4C199,69.7,195,71.8,195,71.8z"/>
		<path class="st1" d="M229.7,40.4c5.7-11.3,1.2-25.2-10.1-30.9C214.1,6.6,207.9,6.1,202,8c-5.8,1.9-10.5,5.9-13.3,11.4
			c-5.7,11.3-1.2,25.2,10.1,30.9c2.4,1.2,5,2,7.6,2.3c0.4,1.8,1.1,8.1-6.4,11.9c-0.3,0.2-0.5,0.5-0.4,0.9c0.1,0.3,0.4,0.6,0.8,0.6
			c0.2,0,15.6-1,18.5-15.2C223.6,48.6,227.4,44.9,229.7,40.4"/>
		<path class="st3" d="M229.7,40.4c5.7-11.3,1.2-25.2-10.1-30.9C214.1,6.6,207.9,6.1,202,8c-5.8,1.9-10.5,5.9-13.3,11.4
			c-5.7,11.3-1.2,25.2,10.1,30.9c2.4,1.2,5,2,7.6,2.3c0.4,1.8,1.1,8.1-6.4,11.9c-0.3,0.2-0.5,0.5-0.4,0.9c0.1,0.3,0.4,0.6,0.8,0.6
			c0.2,0,15.6-1,18.5-15.2C223.6,48.6,227.4,44.9,229.7,40.4z"/>
	</g>
	<g>
		<path class="st4" d="M194.5,32.4l4-2l-4-2v-0.8l4.9,2.4v0.7l-4.9,2.4V32.4z"/>
		<path class="st4" d="M201,30.8v-0.7l4.9-2.4v0.8l-4,2l4,2v0.8L201,30.8z"/>
		<path class="st4" d="M208.5,32.3h-1.1v-0.7h1.3l0.4-2.2h-1.2v-0.7h1.4l0.3-1.8h0.7l-0.3,1.8h2l0.3-1.8h0.7l-0.3,1.8h1.1v0.7h-1.3
			l-0.4,2.2h1.2v0.7H212l-0.3,1.9H211l0.3-1.9h-2l-0.3,1.9h-0.7L208.5,32.3z M211.4,31.6l0.4-2.2h-2l-0.4,2.2H211.4z"/>
		<path class="st4" d="M216.4,28.7l-1.1,0.8L215,29l1.2-0.6l-1.2-0.6l0.3-0.5l1.1,0.8l-0.1-1.3h0.5l-0.1,1.3l1.1-0.8l0.3,0.5
			l-1.2,0.6l1.2,0.6l-0.3,0.5l-1.1-0.8l0.1,1.3h-0.5L216.4,28.7z"/>
		<path class="st4" d="M219.7,33.1h1v1.1h-1V33.1z M219.7,27.4v-0.6h0.9v0.6l-0.3,4.7H220L219.7,27.4z"/>
		<path class="st4" d="M222.6,33.1h1v1.1h-1V33.1z M222.6,27.4v-0.6h0.9v0.6l-0.3,4.7h-0.5L222.6,27.4z"/>
	</g>
	<path class="st1" d="M54,137.7c28.5,0,51.6-23.1,51.6-51.6S82.5,34.5,54,34.5C25.5,34.4,2.4,57.5,2.4,86
		C2.4,114.6,25.5,137.7,54,137.7"/>
	<circle class="st0" cx="54" cy="86" r="51.6"/>
	<path class="st1" d="M79.6,99.1c7.4-14.6,1.5-32.5-13.1-40c-7.1-3.6-15.2-4.3-22.8-1.8C36.2,59.8,30.1,65,26.5,72
		c-7.4,14.6-1.5,32.5,13.1,40c3.2,1.6,6.6,2.7,10.2,3.1c0.5,1.9,2,11-8.6,16.3c-0.2,0.1-0.4,0.4-0.3,0.6c0.1,0.3,0.3,0.4,0.6,0.4
		c0.2,0,20.3-1.3,24-19.8C71.5,109.9,76.6,105.1,79.6,99.1"/>
	<path class="st5" d="M79.6,99.1c7.4-14.6,1.5-32.5-13.1-40c-7.1-3.6-15.2-4.3-22.8-1.8C36.2,59.8,30.1,65,26.5,72
		c-7.4,14.6-1.5,32.5,13.1,40c3.2,1.6,6.6,2.7,10.2,3.1c0.5,1.9,2,11-8.6,16.3c-0.2,0.1-0.4,0.4-0.3,0.6c0.1,0.3,0.3,0.4,0.6,0.4
		c0.2,0,20.3-1.3,24-19.8C71.5,109.9,76.6,105.1,79.6,99.1z"/>
	<path class="st1" d="M426.6,137.7c28.5,0,51.6-23.1,51.6-51.6s-23.1-51.6-51.6-51.6C398.1,34.4,375,57.5,375,86
		C375,114.6,398.1,137.7,426.6,137.7"/>
	<circle class="st0" cx="426.6" cy="86" r="51.6"/>
	<path class="st6" d="M418.8,69.7c0,0,4.6-0.8,7.4-1.4c3.3-0.7,11.6-0.6,14.9-0.6c3.4,0,5.4,0.8,5.4,2.9c0,2.3-0.1,3.3,1.1,4.5
		c1.1,1.1,1.6,4,0.2,5.5s1.3,3.1,1.3,5.5s-0.5,2.1-1.6,3.1c-1.1,1.1,1.2,2.5,0.4,5.2c-0.8,2.7-3.4,2.6-5.3,2.6s-8.4,0.1-10.3,1.9
		c-1.8,1.8-3.4,3.4-3.4,6.1c0,2.8,2.7,6,2.3,9.5c-0.3,3-3.1,8.2-4.8,6.5c-1.7-1.7-0.2-4.5-0.8-8.6c-0.5-2.8-4.1-7.8-6-10.4
		c-1.5-2-2.3-5.3-4.6-6.6c-2-1.2-4.8-3-9.7-3.6c-2.4-0.3-29.7,1.6-29.7,1.6c-1.3-15.2,1.2-21.8,4.3-26.8l24.5,2.2L418.8,69.7z"/>
	<path class="st1" d="M303.4,137.7c28.5,0,51.6-23.1,51.6-51.6s-23.1-51.6-51.6-51.6s-51.6,23.1-51.6,51.6
		C251.7,114.6,274.9,137.7,303.4,137.7"/>
	<ellipse class="st0" cx="303.4" cy="86" rx="51.6" ry="51.6"/>
	<g>
		<g>
			<defs>
				<rect id="SVGID_1_" x="289.9" y="65.9" width="56.1" height="51.6"/>
			</defs>
			<clipPath id="SVGID_2_">
				<use xlink:href="#SVGID_1_"  style="overflow:visible;"/>
			</clipPath>
			<path class="st7" d="M303.5,87.1l19.7-19.7c0,0,8.9,6.9,9.2,17.9c0.3,11.1-5.5,19.9-8.6,22.7s-12.6,8.5-20.4,8L303.5,87.1z"/>
		</g>
	</g>
	<path class="st6" d="M332.5,86.9c0,16.1-13,29.1-29.1,29.1s-29.1-13-29.1-29.1s13-29.1,29.1-29.1C316.2,57.8,332.5,70.8,332.5,86.9
		z"/>
	<line class="st8" x1="303.4" y1="61.4" x2="303.4" y2="70.6"/>
	<line class="st9" x1="303.4" y1="72.6" x2="303.4" y2="87.3"/>
	<line class="st8" x1="329.2" y1="87.3" x2="320.1" y2="87.3"/>
	<line class="st8" x1="321.6" y1="105.5" x2="317.9" y2="101.8"/>
	<line class="st8" x1="285.1" y1="105.5" x2="288.9" y2="101.8"/>
	<line class="st9" x1="287.1" y1="103.4" x2="303.4" y2="87.3"/>
	<line class="st8" x1="303.4" y1="104" x2="303.4" y2="113.1"/>
	<line class="st8" x1="286.7" y1="87.3" x2="277.5" y2="87.3"/>
	<line class="st8" x1="289" y1="72.9" x2="285.1" y2="69"/>
	<line class="st8" x1="317.7" y1="72.9" x2="321.6" y2="69"/>
	<g>
		<path class="st4" d="M572.6,66.2l-4-6.3h2.7l2.5,4.2l2.5-4.2h2.6l-4,6.3v4.2h-2.3V66.2z"/>
		<path class="st4" d="M579.9,65.1c0-3,2.3-5.4,5.6-5.4c3.2,0,5.5,2.4,5.5,5.4c0,3-2.3,5.4-5.6,5.4
			C582.2,70.5,579.9,68.1,579.9,65.1z M588.6,65.1c0-1.8-1.3-3.3-3.2-3.3c-1.9,0-3.1,1.5-3.1,3.3c0,1.8,1.3,3.3,3.2,3.3
			C587.3,68.4,588.6,66.9,588.6,65.1z"/>
		<path class="st4" d="M592.9,65.8v-6h2.3v5.9c0,1.7,0.9,2.6,2.3,2.6c1.4,0,2.3-0.9,2.3-2.5v-6h2.3v5.9c0,3.2-1.8,4.7-4.6,4.7
			C594.6,70.5,592.9,68.9,592.9,65.8z"/>
		<path class="st4" d="M546.8,77.8h2.5l2.2,7.1l2.3-7.1h2l2.3,7.1l2.2-7.1h2.4l-3.6,10.5h-2l-2.4-6.8l-2.4,6.8h-2L546.8,77.8z"/>
		<path class="st4" d="M564.5,77.8h2.3v10.5h-2.3V77.8z"/>
		<path class="st4" d="M569.4,77.8h2.3v8.4h5.2v2.1h-7.5V77.8z"/>
		<path class="st4" d="M578.6,77.8h2.3v8.4h5.2v2.1h-7.5V77.8z"/>
		<path class="st4" d="M591.7,86.7l1.4-1.6c0.9,0.8,1.9,1.3,3.1,1.3c0.9,0,1.5-0.4,1.5-1c0-0.6-0.4-0.9-2.1-1.3
			c-2.1-0.5-3.5-1.1-3.5-3.2c0-1.9,1.5-3.2,3.7-3.2c1.5,0,2.8,0.5,3.9,1.3l-1.2,1.7c-0.9-0.6-1.8-1-2.7-1c-0.9,0-1.3,0.4-1.3,0.9
			c0,0.7,0.4,0.9,2.3,1.4c2.1,0.6,3.3,1.3,3.3,3.2c0,2.1-1.6,3.2-3.8,3.2C594.5,88.4,592.9,87.8,591.7,86.7z"/>
		<path class="st4" d="M601.9,77.8h7.9v2h-5.6v2.1h4.9v2h-4.9v2.2h5.7v2h-8V77.8z"/>
		<path class="st4" d="M612,77.8h7.9v2h-5.6v2.1h4.9v2h-4.9v2.2h5.7v2h-8V77.8z"/>
		<path class="st4" d="M540,95.7h2.3v10.5H540V95.7z"/>
		<path class="st4" d="M544.9,95.7h2.1l4.9,6.4v-6.4h2.3v10.5h-2l-5.1-6.6v6.6h-2.3V95.7z"/>
		<path class="st4" d="M556,104.7l1.4-1.6c0.9,0.8,1.9,1.3,3.1,1.3c0.9,0,1.5-0.4,1.5-1c0-0.6-0.4-0.9-2.1-1.3
			c-2.1-0.5-3.5-1.1-3.5-3.2c0-1.9,1.5-3.2,3.7-3.2c1.5,0,2.8,0.5,3.9,1.3l-1.2,1.7c-0.9-0.6-1.8-1-2.7-1c-0.9,0-1.3,0.4-1.3,0.9
			c0,0.7,0.4,0.9,2.3,1.4c2.1,0.6,3.3,1.3,3.3,3.2c0,2.1-1.6,3.2-3.8,3.2C558.9,106.3,557.3,105.8,556,104.7z"/>
		<path class="st4" d="M568.8,97.8h-3.2v-2.1h8.7v2.1h-3.2v8.3h-2.3V97.8z"/>
		<path class="st4" d="M579.6,95.6h2.1l4.5,10.5h-2.4l-1-2.3h-4.4l-1,2.3h-2.3L579.6,95.6z M582,101.8l-1.4-3.4l-1.4,3.4H582z"/>
		<path class="st4" d="M587.8,95.7h2.1l4.9,6.4v-6.4h2.3v10.5h-2l-5.1-6.6v6.6h-2.3V95.7z"/>
		<path class="st4" d="M602.1,97.8h-3.2v-2.1h8.7v2.1h-3.2v8.3h-2.3V97.8z"/>
		<path class="st4" d="M609.3,95.7h2.3v8.4h5.2v2.1h-7.5V95.7z"/>
		<path class="st4" d="M621.5,102.1l-4-6.3h2.7l2.5,4.2l2.5-4.2h2.6l-4,6.3v4.2h-2.3V102.1z"/>
		<path class="st4" d="M629.1,96v-0.3h2.7V96l-0.7,6.6h-1.3L629.1,96z M629.2,103.8h2.4v2.4h-2.4V103.8z"/>
	</g>
	<g>
		<path class="st4" d="M38.4,76.5h0.7v6.3h-0.7V76.5z"/>
		<path class="st4" d="M41.1,81.5v-2.8h-0.6v-0.6h0.6v-1.4h0.7v1.4h1.5v0.6h-1.5v2.7c0,0.6,0.3,0.8,0.8,0.8c0.2,0,0.4,0,0.7-0.2v0.6
			c-0.2,0.1-0.5,0.2-0.8,0.2C41.7,82.8,41.1,82.5,41.1,81.5z"/>
		<path class="st4" d="M44.6,76.5h0.8v0l-0.7,2.4h-0.4L44.6,76.5z"/>
		<path class="st4" d="M46.3,82.2l0.4-0.5c0.5,0.4,1.1,0.6,1.6,0.6c0.6,0,1-0.3,1-0.8c0-0.5-0.5-0.6-1.2-0.8
			c-0.7-0.2-1.5-0.5-1.5-1.3c0-0.8,0.7-1.3,1.6-1.3c0.6,0,1.2,0.2,1.7,0.5l-0.3,0.5c-0.4-0.3-0.9-0.4-1.4-0.4
			c-0.5,0-0.9,0.3-0.9,0.7c0,0.4,0.6,0.6,1.2,0.8c0.7,0.2,1.5,0.5,1.5,1.3c0,0.9-0.7,1.4-1.7,1.4C47.6,82.9,46.9,82.6,46.3,82.2z"/>
		<path class="st4" d="M53.9,78.1h0.7v0.8c0.3-0.5,0.8-0.9,1.6-0.9c1.1,0,1.8,0.8,1.8,1.9v2.9h-0.7V80c0-0.9-0.5-1.4-1.3-1.4
			c-0.8,0-1.4,0.6-1.4,1.5v2.7h-0.7V78.1z"/>
		<path class="st4" d="M59.2,80.4c0-1.3,1-2.4,2.4-2.4c1.4,0,2.4,1.1,2.4,2.4c0,1.3-1,2.4-2.4,2.4C60.2,82.9,59.2,81.8,59.2,80.4z
			 M63.3,80.4c0-1-0.7-1.8-1.7-1.8c-1,0-1.7,0.8-1.7,1.8c0,1,0.7,1.8,1.7,1.8C62.6,82.3,63.3,81.4,63.3,80.4z"/>
		<path class="st4" d="M65.5,81.5v-2.8h-0.6v-0.6h0.6v-1.4h0.7v1.4h1.5v0.6h-1.5v2.7c0,0.6,0.3,0.8,0.8,0.8c0.2,0,0.4,0,0.7-0.2v0.6
			c-0.2,0.1-0.5,0.2-0.8,0.2C66.1,82.8,65.5,82.5,65.5,81.5z"/>
		<path class="st4" d="M33.1,88.9h0.7v0.8c0.3-0.5,0.7-0.9,1.5-0.9c0.8,0,1.2,0.4,1.5,0.9c0.3-0.5,0.8-0.9,1.6-0.9
			c1.1,0,1.7,0.7,1.7,1.9v2.9h-0.7v-2.7c0-0.9-0.4-1.4-1.2-1.4c-0.7,0-1.3,0.5-1.3,1.4v2.7h-0.7v-2.7c0-0.9-0.5-1.4-1.2-1.4
			c-0.7,0-1.3,0.6-1.3,1.5v2.7h-0.7V88.9z"/>
		<path class="st4" d="M41.4,94.8l0.2-0.5c0.2,0.1,0.4,0.2,0.7,0.2c0.4,0,0.7-0.2,1-0.9l-2.1-4.6h0.8l1.7,3.9l1.5-3.9h0.7l-2,4.8
			c-0.4,1-0.8,1.3-1.5,1.3C42,95,41.7,95,41.4,94.8z"/>
		<path class="st4" d="M49.4,91.2c0-1.3,1-2.4,2.4-2.4c1.4,0,2.4,1.1,2.4,2.4c0,1.3-1,2.4-2.4,2.4C50.4,93.7,49.4,92.6,49.4,91.2z
			 M53.5,91.2c0-1-0.7-1.8-1.7-1.8c-1,0-1.7,0.8-1.7,1.8c0,1,0.7,1.8,1.7,1.8C52.8,93.1,53.5,92.2,53.5,91.2z"/>
		<path class="st4" d="M55.5,88.9h0.7v1.2c0.3-0.8,1-1.3,1.9-1.3v0.7H58c-1,0-1.8,0.7-1.8,2.1v1.9h-0.7V88.9z"/>
		<path class="st4" d="M58.9,91.2c0-1.5,1.1-2.4,2.2-2.4c0.9,0,1.4,0.5,1.8,1V87h0.7v6.6h-0.7v-0.9c-0.4,0.6-0.9,1-1.8,1
			C60,93.7,58.9,92.8,58.9,91.2z M62.9,91.2c0-1.1-0.8-1.8-1.7-1.8c-0.9,0-1.6,0.7-1.6,1.8c0,1.1,0.8,1.8,1.6,1.8
			C62.1,93,62.9,92.3,62.9,91.2z"/>
		<path class="st4" d="M67.2,93.1c0.6,0,1.1-0.3,1.5-0.7l0.4,0.4c-0.5,0.5-1,0.9-1.9,0.9c-1.3,0-2.3-1-2.3-2.4
			c0-1.4,0.9-2.4,2.2-2.4c1.4,0,2.2,1.1,2.2,2.5c0,0.1,0,0.1,0,0.2h-3.7C65.6,92.5,66.3,93.1,67.2,93.1z M68.5,91
			c-0.1-0.8-0.6-1.6-1.5-1.6c-0.8,0-1.4,0.7-1.5,1.6H68.5z"/>
		<path class="st4" d="M70.4,88.9h0.7v1.2c0.3-0.8,1-1.3,1.9-1.3v0.7H73c-1,0-1.8,0.7-1.8,2.1v1.9h-0.7V88.9z"/>
	</g>
</g>
</svg>
