<?xml version="1.0" encoding="utf-8"?>
<!-- Generator: Adobe Illustrator 21.1.0, SVG Export Plug-In . SVG Version: 6.00 Build 0)  -->
<svg version="1.1" id="Слой_1" xmlns="http://www.w3.org/2000/svg" xmlns:xlink="http://www.w3.org/1999/xlink" x="0px" y="0px"
	 viewBox="0 0 671.5 171.5" style="enable-background:new 0 0 671.5 171.5;" xml:space="preserve">
<style type="text/css">
	.st0{fill:none;stroke:#FBB03D;stroke-width:2;}
	.st1{fill:#1A5B53;}
	.st2{fill:none;stroke:#E6A258;stroke-width:0.75;stroke-linecap:round;stroke-linejoin:round;}
	.st3{fill:none;stroke:#FBB03D;stroke-linejoin:round;}
	.st4{fill:#E6A258;}
	.st5{fill:none;stroke:#FBB03D;stroke-width:0.75;stroke-linejoin:round;}
	.st6{fill:#FBB03D;}
	.st7{fill:none;stroke:#E6A258;stroke-width:0.75;}
	.st8{opacity:0.5;clip-path:url(#SVGID_2_);fill:#E6A258;}
	.st9{fill:none;stroke:#E6A258;}
	.st10{fill:none;stroke:#E6A258;stroke-width:2;stroke-linecap:round;}
</style>
<g>
	<line class="st0" x1="563" y1="86.1" x2="33.3" y2="86.1"/>
	<path class="st1" d="M585.9,169.6c46.1,0,83.5-37.4,83.5-83.5c0-46.1-37.4-83.5-83.5-83.5c-46.1,0-83.5,37.4-83.5,83.5
		C502.4,132.2,539.8,169.6,585.9,169.6"/>
	<circle class="st0" cx="585.9" cy="86" r="83.5"/>
	<g>
		<path class="st1" d="M178.8,137.7c28.5,0,51.6-23.1,51.6-51.6c0-28.5-23.1-51.6-51.6-51.6c-28.5,0-51.6,23.1-51.6,51.6
			C127.2,114.6,150.3,137.7,178.8,137.7"/>
		<circle class="st0" cx="178.8" cy="86" r="51.6"/>
		<path class="st2" d="M188.9,69.1c0,0-4.8,5.4-7.5,4.2 M188.1,74.7c0,0-2.7-0.2-6.8,0.8 M168.7,69.1c0,0,4.8,5.4,7.5,4.2
			 M181.1,84.9c0,0-2,1.9-4.6,0 M169.6,74.7c0,0,2.7-0.2,6.8,0.8 M173.8,93.2c0,0,4.4-4.1,10.1,0 M178.8,122.8
			c11.3,0,21.6-4.4,29.3-11.7c-0.5-0.4-1.1-0.9-2.1-1.3c-2.8-1.3-15.5-6.3-18.7-7.5l0,0.1c0,0-2.3,3.8-8.4,3.8c0,0-0.1,0-0.1,0
			c0,0-0.1,0-0.1,0c-6.2,0-8.4-3.8-8.4-3.8l0-0.1c-3.2,1.2-15.9,6.2-18.7,7.5c-0.9,0.4-1.6,0.9-2.1,1.3
			C157.2,118.4,167.5,122.8,178.8,122.8z M194.6,58.3c-3.4-6.7-7.3-8.9-15.8-9.1c-8.5,0.2-12.4,2.3-15.8,9.1
			c-2.8,5.6-1.8,11.1-1.3,13.2c0.5,0.1,0.9,0.3,0.9,0.3l1.2,5.5h1.3v-9c0,0-1.2-4,2.3-6.7c3.1-2.5,7.4-3.2,11.5-3.3
			c4.1,0.1,8.4,0.8,11.5,3.3c3.4,2.7,2.3,6.7,2.3,6.7v9h1.3l1.2-5.5c0,0,0.4-0.2,0.9-0.3C196.4,69.5,197.4,63.9,194.6,58.3z
			 M182.2,100.3c-1.3,0.3-2.4,0.3-3.4,0.3c-1,0-2.2,0-3.4-0.3c-1.4-0.3-3.1-1.5-4.7-3l-0.4,5.1c0,0,2.3,3.8,8.4,3.8c0,0,0.1,0,0.1,0
			c0,0,0.1,0,0.1,0c6.2,0,8.4-3.8,8.4-3.8l-0.4-5.1C185.4,98.8,183.6,100,182.2,100.3z M195,71.8l-1.2,5.5h-1.3v-9
			c0,0,1.2-4-2.3-6.7c-3.1-2.5-7.4-3.2-11.5-3.3c-4.1,0.1-8.4,0.8-11.5,3.3c-3.4,2.7-2.3,6.7-2.3,6.7v9h-1.3l-1.2-5.5
			c0,0-4-2.1-2.8,5c1.3,7.1,5.3,6.4,5.3,6.4s0,5.4,0.7,7.8c0.7,2.4,6.1,8.6,9.5,9.3c1.3,0.3,2.4,0.3,3.4,0.3c1,0,2.2,0,3.4-0.3
			c3.4-0.7,8.9-6.9,9.5-9.3c0.7-2.4,0.7-7.8,0.7-7.8s4.1,0.8,5.3-6.4C199,69.7,195,71.8,195,71.8z"/>
		<path class="st1" d="M229.7,40.4c5.7-11.3,1.2-25.2-10.1-30.9C214.1,6.6,207.9,6.1,202,8c-5.8,1.9-10.5,5.9-13.3,11.4
			c-5.7,11.3-1.2,25.2,10.1,30.9c2.4,1.2,5,2,7.6,2.3c0.4,1.8,1.1,8.1-6.4,11.9c-0.3,0.2-0.5,0.5-0.4,0.9c0.1,0.3,0.4,0.6,0.8,0.6
			c0.2,0,15.6-1,18.5-15.2C223.6,48.6,227.4,44.9,229.7,40.4"/>
		<path class="st3" d="M229.7,40.4c5.7-11.3,1.2-25.2-10.1-30.9C214.1,6.6,207.9,6.1,202,8c-5.8,1.9-10.5,5.9-13.3,11.4
			c-5.7,11.3-1.2,25.2,10.1,30.9c2.4,1.2,5,2,7.6,2.3c0.4,1.8,1.1,8.1-6.4,11.9c-0.3,0.2-0.5,0.5-0.4,0.9c0.1,0.3,0.4,0.6,0.8,0.6
			c0.2,0,15.6-1,18.5-15.2C223.6,48.6,227.4,44.9,229.7,40.4z"/>
	</g>
	<g>
		<path class="st4" d="M194.5,32.4l4-2l-4-2v-0.8l4.9,2.4v0.7l-4.9,2.4V32.4z"/>
		<path class="st4" d="M201,30.8v-0.7l4.9-2.4v0.8l-4,2l4,2v0.8L201,30.8z"/>
		<path class="st4" d="M208.5,32.3h-1.1v-0.7h1.3l0.4-2.2h-1.2v-0.7h1.4l0.3-1.8h0.7l-0.3,1.8h2l0.3-1.8h0.7l-0.3,1.8h1.1v0.7h-1.3
			l-0.4,2.2h1.2v0.7H212l-0.3,1.9H211l0.3-1.9h-2l-0.3,1.9h-0.7L208.5,32.3z M211.4,31.6l0.4-2.2h-2l-0.4,2.2H211.4z"/>
		<path class="st4" d="M216.4,28.7l-1.1,0.8l-0.3-0.5l1.2-0.6l-1.2-0.6l0.3-0.5l1.1,0.8l-0.1-1.3h0.5l-0.1,1.3l1.1-0.8l0.3,0.5
			l-1.2,0.6l1.2,0.6l-0.3,0.5l-1.1-0.8l0.1,1.3h-0.5L216.4,28.7z"/>
		<path class="st4" d="M219.7,33.1h1v1.1h-1V33.1z M219.7,27.4v-0.6h0.9v0.6l-0.3,4.7H220L219.7,27.4z"/>
		<path class="st4" d="M222.6,33.1h1v1.1h-1V33.1z M222.6,27.4v-0.6h0.9v0.6l-0.3,4.7h-0.5L222.6,27.4z"/>
	</g>
	<path class="st1" d="M54,137.7c28.5,0,51.6-23.1,51.6-51.6c0-28.5-23.1-51.6-51.6-51.6C25.5,34.4,2.4,57.5,2.4,86
		C2.4,114.6,25.5,137.7,54,137.7"/>
	<circle class="st0" cx="54" cy="86" r="51.6"/>
	<path class="st1" d="M79.6,99.1c7.4-14.6,1.5-32.5-13.1-40c-7.1-3.6-15.2-4.3-22.8-1.8C36.2,59.8,30.1,65,26.5,72
		c-7.4,14.6-1.5,32.5,13.1,40c3.2,1.6,6.6,2.7,10.2,3.1c0.5,1.9,2,11-8.6,16.3c-0.2,0.1-0.4,0.4-0.3,0.6c0.1,0.3,0.3,0.4,0.6,0.4
		c0.2,0,20.3-1.3,24-19.8C71.5,109.9,76.6,105.1,79.6,99.1"/>
	<path class="st5" d="M79.6,99.1c7.4-14.6,1.5-32.5-13.1-40c-7.1-3.6-15.2-4.3-22.8-1.8C36.2,59.8,30.1,65,26.5,72
		c-7.4,14.6-1.5,32.5,13.1,40c3.2,1.6,6.6,2.7,10.2,3.1c0.5,1.9,2,11-8.6,16.3c-0.2,0.1-0.4,0.4-0.3,0.6c0.1,0.3,0.3,0.4,0.6,0.4
		c0.2,0,20.3-1.3,24-19.8C71.5,109.9,76.6,105.1,79.6,99.1z"/>
	<g>
		<path class="st6" d="M53.1,74.8c-1-0.2-1.7-0.8-1.7-1.9c0-0.5,0.2-1,0.5-1.3c0.4-0.4,1-0.6,1.8-0.6h2.7v6.3h-0.7V75h-1.8L52,77.4
			h-0.9L53.1,74.8z M55.7,74.3v-2.6h-1.9c-1,0-1.6,0.5-1.6,1.3c0,0.8,0.7,1.3,1.6,1.3H55.7z"/>
	</g>
	<g>
		<path class="st6" d="M30.7,87.3l0.4-0.5c0.5,0.4,1,0.6,1.6,0.6c0.6,0,1.2-0.3,1.2-0.8c0-0.5-0.4-0.8-1.2-0.8h-0.6v-0.6h0.6
			c0.6,0,1-0.3,1-0.8c0-0.4-0.4-0.7-1-0.7c-0.5,0-1,0.1-1.4,0.5l-0.3-0.5c0.5-0.4,1.1-0.6,1.8-0.6c1,0,1.7,0.5,1.7,1.2
			c0,0.6-0.4,0.9-0.7,1.1c0.5,0.2,0.9,0.5,0.9,1.1c0,0.7-0.7,1.4-1.8,1.4C31.9,88,31.2,87.7,30.7,87.3z"/>
		<path class="st6" d="M35.4,86.5c0-1,0.8-1.5,2-1.5c0.6,0,1,0.1,1.4,0.2V85c0-0.8-0.5-1.3-1.4-1.3c-0.5,0-1,0.1-1.4,0.3l-0.2-0.6
			c0.5-0.2,1-0.4,1.7-0.4c0.7,0,1.2,0.2,1.5,0.5c0.3,0.3,0.5,0.8,0.5,1.4v2.8h-0.7v-0.7c-0.3,0.4-0.9,0.8-1.7,0.8
			C36.2,88,35.4,87.5,35.4,86.5z M38.8,86.2v-0.4c-0.3-0.1-0.8-0.2-1.4-0.2c-0.9,0-1.4,0.4-1.4,1c0,0.6,0.5,0.9,1.2,0.9
			C38.1,87.4,38.8,86.9,38.8,86.2z"/>
		<path class="st6" d="M40.9,83.2h0.7v2.7l2.5-2.7H45l-1.9,2l2,2.6h-0.8l-1.7-2.1l-1,1v1.1h-0.7V83.2z"/>
		<path class="st6" d="M45.5,86.5c0-1,0.8-1.5,2-1.5c0.6,0,1,0.1,1.4,0.2V85c0-0.8-0.5-1.3-1.4-1.3c-0.5,0-1,0.1-1.4,0.3l-0.2-0.6
			c0.5-0.2,1-0.4,1.7-0.4c0.7,0,1.2,0.2,1.5,0.5c0.3,0.3,0.5,0.8,0.5,1.4v2.8h-0.7v-0.7c-0.3,0.4-0.9,0.8-1.7,0.8
			C46.4,88,45.5,87.5,45.5,86.5z M48.9,86.2v-0.4c-0.3-0.1-0.8-0.2-1.4-0.2c-0.9,0-1.4,0.4-1.4,1c0,0.6,0.5,0.9,1.2,0.9
			C48.3,87.4,48.9,86.9,48.9,86.2z"/>
		<path class="st6" d="M50.6,87.3l0.4-0.5c0.5,0.4,1,0.6,1.6,0.6c0.6,0,1.2-0.3,1.2-0.8c0-0.5-0.4-0.8-1.2-0.8h-0.6v-0.6h0.6
			c0.6,0,1-0.3,1-0.8c0-0.4-0.4-0.7-1-0.7c-0.5,0-1,0.1-1.4,0.5l-0.3-0.5c0.5-0.4,1.1-0.6,1.8-0.6c1,0,1.7,0.5,1.7,1.2
			c0,0.6-0.4,0.9-0.7,1.1c0.5,0.2,0.9,0.5,0.9,1.1c0,0.7-0.7,1.4-1.8,1.4C51.8,88,51.2,87.7,50.6,87.3z"/>
		<path class="st6" d="M55.7,83.2h0.7V85h1.2c1,0,1.8,0.4,1.8,1.4c0,0.9-0.7,1.5-1.8,1.5h-2V83.2z M57.6,87.3c0.7,0,1.1-0.3,1.1-0.9
			c0-0.5-0.4-0.8-1.1-0.8h-1.2v1.7H57.6z M60.3,83.2H61v4.7h-0.7V83.2z"/>
		<path class="st6" d="M62.5,83.2h2.3c0.9,0,1.5,0.5,1.5,1.2c0,0.6-0.4,0.9-0.8,1.1c0.6,0.2,1,0.5,1,1.2c0,0.8-0.7,1.3-1.7,1.3h-2.3
			V83.2z M64.7,85.2c0.6,0,0.9-0.3,0.9-0.7c0-0.4-0.3-0.7-0.9-0.7h-1.4v1.4H64.7z M64.8,87.3c0.7,0,1.1-0.3,1.1-0.8
			c0-0.5-0.4-0.7-1.2-0.7h-1.5v1.5H64.8z"/>
		<path class="st6" d="M67.5,86.5c0-1,0.8-1.5,2-1.5c0.6,0,1,0.1,1.4,0.2V85c0-0.8-0.5-1.3-1.4-1.3c-0.5,0-1,0.1-1.4,0.3l-0.2-0.6
			c0.5-0.2,1-0.4,1.7-0.4c0.7,0,1.2,0.2,1.5,0.5c0.3,0.3,0.5,0.8,0.5,1.4v2.8h-0.7v-0.7C70.5,87.6,70,88,69.2,88
			C68.3,88,67.5,87.5,67.5,86.5z M70.9,86.2v-0.4c-0.3-0.1-0.8-0.2-1.4-0.2c-0.9,0-1.4,0.4-1.4,1c0,0.6,0.5,0.9,1.2,0.9
			C70.2,87.4,70.9,86.9,70.9,86.2z"/>
		<path class="st6" d="M72.2,87.9l0.1-0.6c0.1,0,0.3,0.1,0.3,0.1c0.6,0,1-0.2,1-3.7v-0.4H77v4.7h-0.7v-4h-1.9v0.1c0,3.6-0.7,4-1.5,4
			C72.6,87.9,72.4,87.9,72.2,87.9z"/>
	</g>
	<g>
		<path class="st6" d="M37.1,97.8h0.5c0.4-0.7,0.6-1.7,0.6-3.2v-0.8h3.3v4h0.7l-0.1,1.8h-0.6v-1.2h-3.8l-0.1,1.2h-0.6V97.8z
			 M40.9,97.8v-3.4h-2V95c0,1.2-0.2,2.2-0.5,2.8H40.9z"/>
		<path class="st6" d="M43.2,93.7h0.7v0.9c0.4-0.6,0.9-1,1.8-1c1.1,0,2.2,0.9,2.2,2.4c0,1.5-1.1,2.4-2.2,2.4c-0.9,0-1.4-0.5-1.8-1
			v2.3h-0.7V93.7z M47.2,96c0-1.1-0.8-1.8-1.6-1.8c-0.9,0-1.7,0.7-1.7,1.8c0,1.1,0.8,1.8,1.7,1.8C46.5,97.8,47.2,97.2,47.2,96z"/>
		<path class="st6" d="M48.8,99.6l0.2-0.5c0.2,0.1,0.4,0.2,0.7,0.2c0.4,0,0.7-0.2,1-0.9l-2.1-4.6h0.8l1.7,3.9l1.5-3.9h0.7l-2,4.8
			c-0.4,1-0.8,1.3-1.5,1.3C49.4,99.8,49.1,99.8,48.8,99.6z"/>
		<path class="st6" d="M54.4,93.7h3.2v0.6H55v4h-0.7V93.7z"/>
		<path class="st6" d="M58,96c0-1.3,1-2.4,2.4-2.4c1.4,0,2.4,1.1,2.4,2.4c0,1.3-1,2.4-2.4,2.4C59,98.5,58,97.4,58,96z M62.1,96
			c0-1-0.7-1.8-1.7-1.8c-1,0-1.7,0.8-1.7,1.8c0,1,0.7,1.8,1.7,1.8C61.4,97.9,62.1,97,62.1,96z"/>
		<path class="st6" d="M63.8,96c0-1.4,0.9-2.4,2.2-2.4c1.4,0,2.2,1.1,2.2,2.5c0,0.1,0,0.1,0,0.2h-3.7c0.1,1,0.8,1.5,1.6,1.5
			c0.6,0,1.1-0.3,1.5-0.7l0.4,0.4c-0.5,0.5-1,0.9-1.9,0.9C64.8,98.5,63.8,97.5,63.8,96z M67.5,95.8c-0.1-0.8-0.6-1.6-1.5-1.6
			c-0.8,0-1.4,0.7-1.5,1.6H67.5z"/>
		<path class="st6" d="M69.4,97.4h0.8v0.9h-0.8V97.4z M69.4,92.6v-0.5h0.8v0.5l-0.2,4h-0.4L69.4,92.6z"/>
	</g>
	<path class="st1" d="M426.6,137.7c28.5,0,51.6-23.1,51.6-51.6c0-28.5-23.1-51.6-51.6-51.6C398.1,34.4,375,57.5,375,86
		C375,114.6,398.1,137.7,426.6,137.7"/>
	<circle class="st0" cx="426.6" cy="86" r="51.6"/>
	<path class="st7" d="M418.8,69.7c0,0,4.6-0.8,7.4-1.4c3.3-0.7,11.6-0.6,14.9-0.6c3.4,0,5.4,0.8,5.4,2.9c0,2.3-0.1,3.3,1.1,4.5
		c1.1,1.1,1.6,4,0.2,5.5c-1.4,1.5,1.3,3.1,1.3,5.5c0,2.4-0.5,2.1-1.6,3.1c-1.1,1.1,1.2,2.5,0.4,5.2c-0.8,2.7-3.4,2.6-5.3,2.6
		s-8.4,0.1-10.3,1.9c-1.8,1.8-3.4,3.4-3.4,6.1c0,2.8,2.7,6,2.3,9.5c-0.3,3-3.1,8.2-4.8,6.5c-1.7-1.7-0.2-4.5-0.8-8.6
		c-0.5-2.8-4.1-7.8-6-10.4c-1.5-2-2.3-5.3-4.6-6.6c-2-1.2-4.8-3-9.7-3.6c-2.4-0.3-29.7,1.6-29.7,1.6c-1.3-15.2,1.2-21.8,4.3-26.8
		l24.5,2.2L418.8,69.7z"/>
	<path class="st1" d="M303.4,137.7c28.5,0,51.6-23.1,51.6-51.6c0-28.5-23.1-51.6-51.6-51.6c-28.5,0-51.6,23.1-51.6,51.6
		C251.7,114.6,274.9,137.7,303.4,137.7"/>
	<ellipse class="st0" cx="303.4" cy="86" rx="51.6" ry="51.6"/>
	<g>
		<defs>
			<rect id="SVGID_1_" x="289.9" y="65.9" width="56.1" height="51.6"/>
		</defs>
		<clipPath id="SVGID_2_">
			<use xlink:href="#SVGID_1_"  style="overflow:visible;"/>
		</clipPath>
		<path class="st8" d="M303.5,87.1l19.7-19.7c0,0,8.9,6.9,9.2,17.9c0.3,11.1-5.5,19.9-8.6,22.7c-3.1,2.8-12.6,8.5-20.4,8L303.5,87.1
			z"/>
	</g>
	<path class="st7" d="M332.5,86.9c0,16.1-13,29.1-29.1,29.1c-16.1,0-29.1-13-29.1-29.1c0-16.1,13-29.1,29.1-29.1
		C316.2,57.8,332.5,70.8,332.5,86.9z"/>
	<line class="st9" x1="303.4" y1="61.4" x2="303.4" y2="70.6"/>
	<line class="st10" x1="303.4" y1="72.6" x2="303.4" y2="87.3"/>
	<line class="st9" x1="329.2" y1="87.3" x2="320.1" y2="87.3"/>
	<line class="st9" x1="321.6" y1="105.5" x2="317.9" y2="101.8"/>
	<line class="st9" x1="285.1" y1="105.5" x2="288.9" y2="101.8"/>
	<line class="st10" x1="287.1" y1="103.4" x2="303.4" y2="87.3"/>
	<line class="st9" x1="303.4" y1="104" x2="303.4" y2="113.1"/>
	<line class="st9" x1="286.7" y1="87.3" x2="277.5" y2="87.3"/>
	<line class="st9" x1="289" y1="72.9" x2="285.1" y2="69"/>
	<line class="st9" x1="317.7" y1="72.9" x2="321.6" y2="69"/>
	<g>
		<path class="st6" d="M574.5,57.8h4.9c1.2,0,2.1,0.3,2.7,0.9c0.5,0.5,0.7,1.1,0.7,1.8c0,1.2-0.6,1.8-1.4,2.3c1.2,0.5,2,1.2,2,2.6
			c0,1.9-1.6,2.9-3.9,2.9h-5V57.8z M578.8,62.1c1,0,1.7-0.3,1.7-1.1c0-0.7-0.5-1.1-1.5-1.1h-2.3v2.2H578.8z M579.4,66.3
			c1,0,1.6-0.4,1.6-1.2c0-0.7-0.5-1.1-1.7-1.1h-2.7v2.3H579.4z"/>
		<path class="st6" d="M585.3,57.8h2.3v3.6h2.2c2.4,0,3.8,1.4,3.8,3.4c0,2.2-1.5,3.5-4,3.5h-4.4V57.8z M587.6,63.4v2.9h2.1
			c1.1,0,1.7-0.5,1.7-1.5c0-0.9-0.6-1.4-1.7-1.4H587.6z M594.8,57.8h2.3v10.5h-2.3V57.8z"/>
		<path class="st6" d="M555.9,75.8h2.5l-4,8.1c-0.9,1.8-2,2.5-3.4,2.5c-0.9,0-1.6-0.2-2.3-0.6l0.9-1.7c0.4,0.3,0.8,0.3,1.2,0.3
			c0.4,0,0.9-0.2,1.3-0.8l-4.2-7.9h2.6l2.8,5.5L555.9,75.8z"/>
		<path class="st6" d="M559.9,75.8h4.9c1.2,0,2.1,0.3,2.7,0.9c0.5,0.5,0.7,1.1,0.7,1.8c0,1.2-0.6,1.8-1.4,2.3c1.2,0.5,2,1.2,2,2.6
			c0,1.9-1.6,2.9-3.9,2.9h-5V75.8z M564.3,80.1c1,0,1.7-0.3,1.7-1.1c0-0.7-0.5-1.1-1.5-1.1h-2.3v2.2H564.3z M564.9,84.3
			c1,0,1.6-0.4,1.6-1.2c0-0.7-0.5-1.1-1.7-1.1h-2.7v2.3H564.9z"/>
		<path class="st6" d="M579.8,86.3h-2.3v-6.9l-4.6,6.9h-2.2V75.8h2.3v6.9l4.6-6.9h2.1V86.3z"/>
		<path class="st6" d="M581.2,84.2h1c0.8-1.8,1.2-3.6,1.2-7.2v-1.2h7.6v8.4h1.3l-0.3,4.3H590v-2.2h-6.6l-0.2,2.2h-2.1V84.2z
			 M585.6,77.9V79c0,2.2-0.3,3.8-0.9,5.3h4v-6.3H585.6z"/>
		<path class="st6" d="M602.9,86.3h-2.3v-6.9l-4.6,6.9h-2.2V75.8h2.3v6.9l4.6-6.9h2.1V86.3z"/>
		<path class="st6" d="M607.9,77.9h-3.2v-2.1h8.7v2.1h-3.2v8.4h-2.3V77.9z"/>
		<path class="st6" d="M615.1,75.8h7.9v2.1h-5.6V80h4.9V82h-4.9v2.2h5.7v2.1h-8V75.8z"/>
		<path class="st6" d="M533.4,93.8h2.5l2.8,4.4l2.8-4.4h2.5v10.5h-2.3v-6.8l-3,4.5h-0.1l-2.9-4.4v6.8h-2.3V93.8z"/>
		<path class="st6" d="M548.7,104.3h-2.3V93.8h7.3v2.1h-5V104.3z"/>
		<path class="st6" d="M555.3,93.8h2.3V98h4.3v-4.2h2.3v10.5h-2.3v-4.2h-4.3v4.2h-2.3V93.8z"/>
		<path class="st6" d="M566.3,99.1c0-3,2.4-5.4,5.6-5.4c3.2,0,5.6,2.4,5.6,5.4c0,3-2.4,5.4-5.6,5.4
			C568.6,104.5,566.3,102.1,566.3,99.1z M575,99.1c0-1.8-1.3-3.3-3.2-3.3c-1.9,0-3.1,1.5-3.1,3.3c0,1.8,1.3,3.3,3.2,3.3
			C573.7,102.4,575,100.9,575,99.1z"/>
		<path class="st6" d="M579.5,93.8h4.9c1.2,0,2.1,0.3,2.7,0.9c0.5,0.5,0.7,1.1,0.7,1.8c0,1.2-0.6,1.8-1.4,2.3c1.2,0.5,2,1.2,2,2.6
			c0,1.9-1.6,2.9-3.9,2.9h-5V93.8z M583.9,98c1,0,1.7-0.3,1.7-1.1c0-0.7-0.5-1.1-1.5-1.1h-2.3V98H583.9z M584.5,102.3
			c1,0,1.6-0.4,1.6-1.2c0-0.7-0.5-1.1-1.7-1.1h-2.7v2.3H584.5z"/>
		<path class="st6" d="M590.3,93.8h7.9v2.1h-5.6V98h4.9v2.1h-4.9v2.2h5.7v2.1h-8V93.8z"/>
		<path class="st6" d="M600.4,93.8h2.3V98h4.3v-4.2h2.3v10.5h-2.3v-4.2h-4.3v4.2h-2.3V93.8z"/>
		<path class="st6" d="M611.8,93.8h2.3V98h4.3v-4.2h2.3v10.5h-2.3v-4.2h-4.3v4.2h-2.3V93.8z"/>
		<path class="st6" d="M622.7,99.1c0-3,2.4-5.4,5.6-5.4c3.2,0,5.6,2.4,5.6,5.4c0,3-2.4,5.4-5.6,5.4
			C625,104.5,622.7,102.1,622.7,99.1z M631.4,99.1c0-1.8-1.3-3.3-3.2-3.3c-1.9,0-3.1,1.5-3.1,3.3c0,1.8,1.3,3.3,3.2,3.3
			C630.1,102.4,631.4,100.9,631.4,99.1z"/>
		<path class="st6" d="M635.7,94.1v-0.3h2.7v0.3l-0.7,6.6h-1.3L635.7,94.1z M635.9,101.9h2.4v2.4h-2.4V101.9z"/>
	</g>
</g>
</svg>
