<?xml version="1.0" encoding="utf-8"?>
<!-- Generator: Adobe Illustrator 21.1.0, SVG Export Plug-In . SVG Version: 6.00 Build 0)  -->
<svg version="1.1" id="Слой_1" xmlns="http://www.w3.org/2000/svg" xmlns:xlink="http://www.w3.org/1999/xlink" x="0px" y="0px"
	 viewBox="0 0 671.5 171.5" style="enable-background:new 0 0 671.5 171.5;" xml:space="preserve">
<style type="text/css">
	.st0{fill:none;stroke:#5A7F77;stroke-width:2;}
	.st1{fill:none;stroke:#FFFFFF;stroke-width:2;}
	.st2{fill:#FFFFFF;}
	.st3{fill:#1A5B53;}
	.st4{fill:none;stroke:#FFFFFF;stroke-width:0.5;}
	.st5{fill:none;stroke:#FFFFFF;stroke-width:0.75;}
	.st6{fill:#197D73;}
	.st7{fill:none;stroke:#FFFFFF;stroke-width:0.75;stroke-linecap:round;}
	.st8{fill:none;stroke:#415854;stroke-miterlimit:10;}
	.st9{fill:none;stroke:#FFFFFF;stroke-width:2;stroke-linecap:round;}
	.st10{fill:none;stroke:#197D73;stroke-linecap:round;stroke-linejoin:round;}
</style>
<g>
	<path class="st0" d="M120,65.4"/>
	<line class="st1" x1="650.2" y1="85.5" x2="115.6" y2="85.5"/>
	<path class="st2" d="M86,170.4c46.6,0,84.3-37.7,84.3-84.3c0-46.6-37.7-84.3-84.3-84.3C39.4,1.7,1.7,39.5,1.7,86
		C1.7,132.6,39.4,170.4,86,170.4"/>
	<path class="st3" d="M544.7,86c0,28.8-23.3,52.1-52.1,52.1c-28.8,0-52.1-23.3-52.1-52.1c0-28.8,23.3-52.1,52.1-52.1
		C521.4,33.9,544.7,57.3,544.7,86"/>
	<circle class="st1" cx="492.6" cy="86" r="52.1"/>
	<line class="st4" x1="472.9" y1="38.5" x2="472.9" y2="133.9"/>
	<line class="st4" x1="526.6" y1="47.5" x2="526.6" y2="124.7"/>
	<line class="st4" x1="486.5" y1="34.7" x2="486.5" y2="137.4"/>
	<line class="st4" x1="512.3" y1="38.5" x2="512.3" y2="133.7"/>
	<polyline class="st5" points="445.7,110.6 472.4,78.5 486.8,93 512.4,60.7 527,83.1 556.3,47.4 	"/>
	<path class="st6" d="M472.9,82.6c2,0,3.6-1.6,3.6-3.6c0-2-1.6-3.6-3.6-3.6c-2,0-3.6,1.6-3.6,3.6C469.3,81,470.9,82.6,472.9,82.6"/>
	<circle class="st5" cx="472.9" cy="79" r="3.6"/>
	<path class="st6" d="M486.6,96c2,0,3.6-1.6,3.6-3.6s-1.6-3.6-3.6-3.6c-2,0-3.6,1.6-3.6,3.6S484.6,96,486.6,96"/>
	<circle class="st5" cx="486.6" cy="92.5" r="3.6"/>
	<path class="st6" d="M512.3,65.2c2,0,3.6-1.6,3.6-3.6c0-2-1.6-3.6-3.6-3.6c-2,0-3.6,1.6-3.6,3.6C508.8,63.6,510.4,65.2,512.3,65.2"
		/>
	<circle class="st5" cx="512.3" cy="61.6" r="3.6"/>
	<path class="st6" d="M526.8,85.9c2,0,3.6-1.6,3.6-3.6c0-2-1.6-3.6-3.6-3.6c-2,0-3.6,1.6-3.6,3.6C523.2,84.3,524.9,85.9,526.8,85.9"
		/>
	<circle class="st5" cx="526.8" cy="82.4" r="3.6"/>
	<path class="st6" d="M556.7,51c2,0,3.6-1.6,3.6-3.6c0-2-1.6-3.6-3.6-3.6c-2,0-3.6,1.6-3.6,3.6C553.2,49.4,554.8,51,556.7,51"/>
	<circle class="st5" cx="556.7" cy="47.4" r="3.6"/>
	<path class="st3" d="M618,138.2c28.8,0,52.1-23.3,52.1-52.1c0-28.8-23.3-52.1-52.1-52.1c-28.8,0-52.1,23.3-52.1,52.1
		C565.9,114.8,589.2,138.2,618,138.2"/>
	<circle class="st1" cx="618" cy="86" r="52.1"/>
	<path class="st7" d="M629.5,85c0,7.4-5.8,13.4-13,13.4c-7.2,0-13-6-13-13.4c0-7.4,5.8-13.4,13-13.4C623.7,71.6,629.5,77.6,629.5,85
		z M586.4,85.1c0,0,26.6,30,63.2-0.1 M586.4,85.1c0,0,26.6-30.3,63.2-0.1"/>
	<path class="st2" d="M620.6,84.5c-1.6,0-3-1.3-3-3c0-1.3,0.8-2.4,2-2.8c-0.9-0.4-1.8-0.7-2.9-0.7c-3.6,0-6.4,2.9-6.4,6.4
		c0,3.6,2.9,6.4,6.4,6.4c3.6,0,6.4-2.9,6.4-6.4c0-0.4,0-0.9-0.1-1.3C622.5,84,621.6,84.5,620.6,84.5"/>
	<path class="st3" d="M367.4,138.2c28.8,0,52.1-23.3,52.1-52.1s-23.3-52.1-52.1-52.1c-28.8,0-52.1,23.3-52.1,52.1
		S338.6,138.2,367.4,138.2"/>
	<circle class="st1" cx="367.4" cy="86" r="52.1"/>
	<path class="st2" d="M375.8,67.7h-5.9h-0.7l0,0.7c-0.1,5.1-0.1,10.3-0.1,15.5c0,3.2,0,6.4,0,9.6l0,2.3l1.4-1.9c3.4-4.6,8.5-9,15-13
		l0.6-0.4l-0.3-0.6c-0.4-0.8-0.8-1.6-1.2-2.4c-0.5-0.9-0.9-1.8-1.4-2.8c2.2,0.2,4.3,0.3,6.5,0.5c2.9,0.2,5.9,0.5,8.8,0.7
		c-0.5,1.1-1,2.2-1.5,3.3c-1.7,3.7-3.3,7.4-4.9,11.1c-0.6-0.9-1.1-1.8-1.6-2.7c-0.6-1-1.2-2-1.8-3l-0.4-0.6l-0.6,0.4
		c-6.5,3.9-11,8.2-14,13.5c-3.5-1.5-8.9-1.3-12.1,0.5c-3.6-6.8-9.4-11-14.1-14l-0.6-0.4l-0.4,0.6c-1.3,1.8-2.4,3.7-3.5,5.6l0,0
		c-1.1-2.4-2.2-4.9-3.3-7.3c-1-2.3-2.1-4.7-3.1-7c3.2-0.3,6.4-0.6,9.7-0.8c1.9-0.1,3.7-0.3,5.6-0.4c-0.8,1.7-1.7,3.4-2.6,5.1
		l-0.3,0.6l0.6,0.4c5.2,3.4,11,7.5,15,13.1l1.4,1.9v-2.4V68.8V68h-0.8H359c2.9-3.8,5.8-7.8,8.4-11.6C370.2,60,373,63.8,375.8,67.7"
		/>
	<path class="st8" d="M375.8,67.7h-5.9h-0.7l0,0.7c-0.1,5.1-0.1,10.3-0.1,15.5c0,3.2,0,6.4,0,9.6l0,2.3l1.4-1.9c3.4-4.6,8.5-9,15-13
		l0.6-0.4l-0.3-0.6c-0.4-0.8-0.8-1.6-1.2-2.4c-0.5-0.9-0.9-1.8-1.4-2.8c2.2,0.2,4.3,0.3,6.5,0.5c2.9,0.2,5.9,0.5,8.8,0.7
		c-0.5,1.1-1,2.2-1.5,3.3c-1.7,3.7-3.3,7.4-4.9,11.1c-0.6-0.9-1.1-1.8-1.6-2.7c-0.6-1-1.2-2-1.8-3l-0.4-0.6l-0.6,0.4
		c-6.5,3.9-11,8.2-14,13.5c-3.5-1.5-8.9-1.3-12.1,0.5c-3.6-6.8-9.4-11-14.1-14l-0.6-0.4l-0.4,0.6c-1.3,1.8-2.4,3.7-3.5,5.6l0,0
		c-1.1-2.4-2.2-4.9-3.3-7.3c-1-2.3-2.1-4.7-3.1-7c3.2-0.3,6.4-0.6,9.7-0.8c1.9-0.1,3.7-0.3,5.6-0.4c-0.8,1.7-1.7,3.4-2.6,5.1
		l-0.3,0.6l0.6,0.4c5.2,3.4,11,7.5,15,13.1l1.4,1.9v-2.4V68.8V68h-0.8H359c2.9-3.8,5.8-7.8,8.4-11.6C370.2,60,373,63.8,375.8,67.7z"
		/>
	<path class="st2" d="M367.5,104c2.1-0.2,4.1,0.5,5.6,1.9c1.5,1.4,2.3,3.3,2.4,5.4c0,2.1-0.6,3.3-1.2,4.2c-1.5,2.3-4.1,3.5-7,3.3
		c-3.4-0.3-6.3-3.2-6.6-6.6c-0.3-2.9,0.9-5.6,3.3-7.1C364.8,104.5,365.7,104.1,367.5,104"/>
	<path class="st8" d="M367.5,104c2.1-0.2,4.1,0.5,5.6,1.9c1.5,1.4,2.3,3.3,2.4,5.4c0,2.1-0.6,3.3-1.2,4.2c-1.5,2.3-4.1,3.5-7,3.3
		c-3.4-0.3-6.3-3.2-6.6-6.6c-0.3-2.9,0.9-5.6,3.3-7.1C364.8,104.5,365.7,104.1,367.5,104z"/>
	<path class="st3" d="M242.5,138.2c28.8,0,52.1-23.3,52.1-52.1c0-28.8-23.3-52.1-52.1-52.1c-28.8,0-52.1,23.3-52.1,52.1
		C190.4,114.8,213.8,138.2,242.5,138.2"/>
	<circle class="st1" cx="242.5" cy="86" r="52.1"/>
	<path class="st5" d="M272.4,86.1c0,16.2-13.2,29.4-29.4,29.4c-16.2,0-29.4-13.2-29.4-29.4c0-16.2,13.2-29.4,29.4-29.4
		C255.9,56.7,272.4,69.9,272.4,86.1z"/>
	<polyline class="st9" points="226.7,78 244.6,100.9 283.8,52.3 	"/>
	<g>
		<path class="st10" d="M89.1,129.9l3.7,19.4c0.3-3.8,1.3-16.6,3.1-22l-2-2.2L89.1,129.9z M76,127.2c2.1,6.4,3.2,23,3.2,23.2l0,0
			l4.7-20.5l-5.4-5.4 M113.6,39.1c-5.9-11.6-12.8-15.4-27.7-15.7c-14.8,0.3-21.8,4-27.7,15.7c-4.9,9.6-3.2,19.2-2.3,22.8
			c0.9,0.1,1.6,0.5,1.6,0.5l2,9.5h2.2V56.4c0,0,0.8-6,1.5-9c0.5-2-0.1,8.8,16.8,3.7c9.3-2.9,22.9-7.7,22.9-7.7s0.9,4,3.8,6.9
			c3.8,3.8,3.4,6.1,3.4,6.1V72h2.2l2-9.5c0,0,0.7-0.4,1.6-0.5C116.9,58.3,118.5,48.7,113.6,39.1z M85.8,116.4h0.3c0,0,0.1,0,0.3,0
			c0,0,0,0,0,0c0,0,0.1,0,0.1,0c0,0,0,0,0.1,0c0,0,0.1,0,0.1,0c0,0,0,0,0.1,0c0,0,0.1,0,0.1,0c0,0,0.1,0,0.1,0c0,0,0.1,0,0.1,0
			c0,0,0.1,0,0.1,0c0,0,0.1,0,0.1,0c0.1,0,0.1,0,0.2,0c0,0,0.1,0,0.1,0c0.1,0,0.1,0,0.2,0c0,0,0.1,0,0.1,0c0.1,0,0.2,0,0.2,0
			c0,0,0.1,0,0.1,0c0.1,0,0.2,0,0.3,0c0,0,0.1,0,0.1,0c0.1,0,0.2,0,0.3,0c0,0,0.1,0,0.1,0c0.1,0,0.2,0,0.3-0.1c0,0,0.1,0,0.1,0
			c0.1,0,0.2,0,0.3-0.1c0,0,0.1,0,0.1,0c0.1,0,0.2-0.1,0.4-0.1c0,0,0.1,0,0.1,0c0.1,0,0.3-0.1,0.4-0.1c0,0,0,0,0.1,0
			c0.1,0,0.3-0.1,0.4-0.1c0,0,0.1,0,0.1,0c0.1,0,0.3-0.1,0.5-0.1c0,0,0.1,0,0.1,0c0.2-0.1,0.3-0.1,0.5-0.2c0,0,0.1,0,0.1,0
			c0.2-0.1,0.3-0.1,0.5-0.2c0,0,0.1,0,0.1-0.1c0.2-0.1,0.3-0.2,0.5-0.2c0,0,0.1,0,0.1,0c0.2-0.1,0.4-0.2,0.5-0.3c0,0,0.1,0,0.1-0.1
			c0.2-0.1,0.3-0.2,0.5-0.3c0.1,0,0.1-0.1,0.2-0.1c0.2-0.1,0.4-0.2,0.5-0.3c0.1,0,0.1-0.1,0.2-0.1c0.2-0.1,0.4-0.2,0.6-0.3
			c0,0,0.1-0.1,0.1-0.1c0.2-0.1,0.4-0.3,0.7-0.4c0,0,0,0,0.1,0c0.2-0.1,0.4-0.3,0.6-0.4c0,0,0.1-0.1,0.1-0.1
			c0.2-0.1,0.4-0.3,0.5-0.4c0.1-0.1,0.2-0.1,0.2-0.2c0.5-0.4,1.1-0.8,1.6-1.2l-0.3-4.1c-2.8,2.6-5.9,4.7-8.3,5.2
			c-2.2,0.4-4.3,0.5-6,0.5c-1.7,0-3.8-0.1-6-0.5c-2.5-0.5-5.5-2.6-8.3-5.2l-0.3,4.1C80.1,117.9,85.8,116.4,85.8,116.4 M100.6,110.7
			c-8.7,7.2-14.5,5.7-14.5,5.7l9.8,10.8c2.1-6.5,6.2-14.9,6.2-14.9L100.6,110.7z M71.4,110.7l-1.6,1.6c0,0,4.2,8.4,6.2,14.9
			l9.8-10.8C85.8,116.4,80.1,117.9,71.4,110.7z M102.2,112.3c0,0-4.2,8.4-6.2,14.9c-1.8,5.5-2.8,18.2-3.1,22l-3.7-19.4L94,125
			l-7.8-8.6h-0.3l-7.3,8.1l5.4,5.4l-4.7,20.5c0,0,3,0.3,6.8,0.3c3.2,0,6-0.2,6.8-0.3c0.9,0,25.1-1.2,44.5-19.9
			C137.4,130.4,137.9,127.3,102.2,112.3z M69.8,112.3c-35.8,15-35.2,18.1-35.2,18.1c19.9,19.1,44.6,19.9,44.6,19.9
			s-1.1-16.7-3.2-23.2C73.9,120.7,69.8,112.3,69.8,112.3z M90,85.1c0,0-3.5,3.2-8.1,0 M90.3,68.2c0,0,5.2-4.8,11.9,0 M69.7,68.2
			c0,0,5.2-4.8,11.9,0 M96.7,94.8c0,0-10.5,11.9-21.7,0C75,94.8,86.9,98.7,96.7,94.8z M116,61.9L116,61.9c-0.8,0.1-1.4,0.4-1.6,0.5
			l0,0c0,0,0,0,0,0l-2,9.5h-2.2V56.4c0,0,0.4-2.3-3.4-6.1c-2.9-2.9-3.8-6.9-3.8-6.9s-13.6,4.9-22.9,7.7c-14.8,4.5-16.2-3.4-16.6-3.9
			c-0.1,0.1-0.1,0.2-0.2,0.2c-0.7,3-1.5,9-1.5,9V72h-2.2l-2-9.5c0,0,0,0,0,0h0c-0.1-0.1-0.8-0.4-1.6-0.5c-1.9-0.2-4.7,0.7-3.2,9.1
			c2.2,12.3,9.4,11,9.4,11s0,9.4,1.2,13.5c0.7,2.4,4.3,7.2,8.4,11c0.1,0.1,0.2,0.2,0.3,0.3c0.1,0.1,0.2,0.2,0.3,0.3
			c0.1,0.1,0.2,0.2,0.3,0.3c0.1,0.1,0.2,0.2,0.3,0.2c0.1,0.1,0.2,0.2,0.3,0.3c0.1,0.1,0.2,0.2,0.3,0.3c0.1,0.1,0.2,0.2,0.3,0.2
			c0.1,0.1,0.3,0.2,0.4,0.3c0.1,0.1,0.2,0.2,0.4,0.3c0.1,0.1,0.3,0.2,0.4,0.3c0.1,0.1,0.2,0.1,0.3,0.2c0.1,0.1,0.2,0.2,0.4,0.2
			c0.1,0.1,0.2,0.1,0.3,0.2c0.1,0.1,0.2,0.2,0.4,0.2c0.1,0,0.2,0.1,0.2,0.1c0.1,0.1,0.3,0.2,0.4,0.2c0.1,0,0.1,0.1,0.2,0.1
			c0.2,0.1,0.4,0.2,0.6,0.3c0.1,0,0.1,0,0.2,0.1c0.1,0.1,0.3,0.1,0.4,0.2c0.1,0,0.1,0.1,0.2,0.1c0.1,0.1,0.2,0.1,0.4,0.1
			c0.1,0,0.1,0,0.2,0.1c0.1,0,0.3,0.1,0.4,0.1c0.1,0,0.1,0,0.2,0.1c0.2,0,0.4,0.1,0.5,0.1c2.2,0.4,4.3,0.5,6,0.5
			c1.7,0,3.8-0.1,6-0.5c0.2,0,0.4-0.1,0.5-0.1c0.1,0,0.1,0,0.2-0.1c0.1,0,0.2-0.1,0.4-0.1c0.1,0,0.1,0,0.2-0.1
			c0.1,0,0.2-0.1,0.4-0.1c0.1,0,0.1-0.1,0.2-0.1c0.1-0.1,0.3-0.1,0.4-0.2c0.1,0,0.1,0,0.2-0.1c0.2-0.1,0.4-0.2,0.6-0.3
			c0.1,0,0.1-0.1,0.2-0.1c0.1-0.1,0.3-0.2,0.4-0.2c0.1,0,0.2-0.1,0.2-0.1c0.1-0.1,0.2-0.1,0.4-0.2c0.1-0.1,0.2-0.1,0.3-0.2
			c0.1-0.1,0.2-0.2,0.4-0.2c0.1-0.1,0.2-0.1,0.3-0.2c0.1-0.1,0.3-0.2,0.4-0.3c0.1-0.1,0.2-0.2,0.4-0.3c0.1-0.1,0.3-0.2,0.4-0.3
			c0.1-0.1,0.2-0.2,0.3-0.2c0.1-0.1,0.2-0.2,0.3-0.3c0.1-0.1,0.2-0.2,0.3-0.3c0.1-0.1,0.2-0.2,0.3-0.2c0.1-0.1,0.2-0.2,0.3-0.3
			c0.1-0.1,0.2-0.2,0.3-0.3c0.1-0.1,0.2-0.2,0.3-0.3c4.1-3.8,7.7-8.5,8.4-11c1.2-4.1,1.2-13.5,1.2-13.5s7.2,1.3,9.4-11
			C120.7,62.7,117.9,61.7,116,61.9z"/>
	</g>
	<path class="st0" d="M650.2,100.3"/>
</g>
</svg>
